<svg xmlns="http://www.w3.org/2000/svg" xmlns:xlink="http://www.w3.org/1999/xlink" width="1587" zoomAndPan="magnify" viewBox="0 0 1190.25 1683.749949" height="2245" preserveAspectRatio="xMidYMid meet" version="1.0"><defs><clipPath id="id1"><path d="M 466 374 L 783.707031 374 L 783.707031 799 L 466 799 Z M 466 374 " clip-rule="nonzero"/></clipPath><clipPath id="id2"><path d="M 467 374 L 783.707031 374 L 783.707031 725 L 467 725 Z M 467 374 " clip-rule="nonzero"/></clipPath><clipPath id="id3"><path d="M 466 495 L 783.707031 495 L 783.707031 799 L 466 799 Z M 466 495 " clip-rule="nonzero"/></clipPath><clipPath id="id4"><path d="M 467 471 L 783.707031 471 L 783.707031 728 L 467 728 Z M 467 471 " clip-rule="nonzero"/></clipPath></defs><path fill="#fab47e" d="M 577.03125 1476.578125 C 584.925781 1485.058594 581.03125 1501.132812 577.242188 1504.078125 C 573.441406 1507.023438 523.441406 1525.382812 505.625 1516.191406 C 487.8125 1507 520.011719 1490.996094 539.445312 1482.460938 C 553.050781 1476.472656 570.808594 1469.902344 577.03125 1476.578125 " fill-opacity="1" fill-rule="nonzero"/><path fill="#fab47e" d="M 483.613281 725.648438 C 486.285156 974.667969 522.578125 1042.667969 531.132812 1064.9375 C 536.332031 1078.484375 590.03125 1084.71875 596.5 1046.910156 C 607.191406 984.371094 614.535156 742.441406 605.246094 697.761719 C 595.964844 653.082031 482.742188 643.273438 483.613281 725.648438 " fill-opacity="1" fill-rule="nonzero"/><path fill="#fab47e" d="M 715.308594 725.542969 C 734.824219 973.816406 701.925781 1037.308594 696.46875 1060.535156 C 690.316406 1086.753906 629.085938 1093.5 623.1875 1055.890625 C 613.359375 993.222656 586.40625 753.917969 591.675781 708.582031 C 596.945312 663.261719 708.851562 643.414062 715.308594 725.542969 " fill-opacity="1" fill-rule="nonzero"/><path fill="#fab47e" d="M 509.859375 393.691406 C 434.464844 434.601562 489.09375 556.484375 493.058594 609.027344 C 497.023438 661.558594 484.921875 698.390625 484.234375 729.710938 C 483.546875 761.019531 717.011719 772.496094 715.777344 731.667969 C 714.457031 688.257812 696.867188 659.347656 710.625 563.484375 C 720.964844 491.382812 726.5 401.601562 667.394531 386.914062 C 608.289062 372.226562 550.40625 371.699219 509.859375 393.691406 " fill-opacity="1" fill-rule="nonzero"/><path fill="#fab47e" d="M 533.082031 1031.300781 C 516.035156 1124.773438 557.691406 1475.996094 559.53125 1486.769531 C 561.421875 1497.835938 578.78125 1497.332031 581.566406 1488.109375 C 583.503906 1481.75 626.019531 1084.042969 623.1875 1017.613281 C 620.367188 951.195312 551.582031 929.859375 533.082031 1031.300781 " fill-opacity="1" fill-rule="nonzero"/><path fill="#fab47e" d="M 670.226562 1471.777344 C 661.996094 1479.921875 665.214844 1496.132812 668.886719 1499.230469 C 672.558594 1502.34375 721.757812 1522.75 739.933594 1514.304688 C 758.105469 1505.871094 726.605469 1488.539062 707.546875 1479.199219 C 694.195312 1472.664062 676.722656 1465.359375 670.226562 1471.777344 " fill-opacity="1" fill-rule="nonzero"/><path fill="#fab47e" d="M 695.875 1035.832031 C 715.496094 1128.792969 684.277344 1476.761719 683.9375 1487.6875 C 683.726562 1494.445312 666.660156 1494.585938 664.386719 1487.585938 C 662.347656 1481.257812 604.429688 1091.113281 605.417969 1024.625 C 606.410156 958.164062 674.574219 934.9375 695.875 1035.832031 " fill-opacity="1" fill-rule="nonzero"/><path fill="#fab47e" d="M 676.523438 394.984375 C 792.160156 446.863281 775.875 608.597656 775.09375 626.359375 C 774.324219 644.121094 729.660156 657.667969 715.8125 601.910156 C 701.960938 546.164062 669.773438 452.515625 669.773438 452.515625 C 669.773438 452.515625 621.777344 370.417969 676.523438 394.984375 " fill-opacity="1" fill-rule="nonzero"/><path fill="#fab47e" d="M 776.898438 611.449219 C 773.949219 668.617188 752.929688 820.785156 750.527344 828.496094 C 748.128906 836.816406 734.894531 836.152344 732.355469 826.585938 C 729.882812 817.339844 719.414062 643.84375 724.589844 605.777344 C 729.789062 567.710938 778.636719 577.984375 776.898438 611.449219 " fill-opacity="1" fill-rule="nonzero"/><path fill="#fab47e" d="M 753.757812 809.476562 C 752.765625 822.113281 762.769531 825.5625 760.414062 838.015625 C 758.058594 850.453125 744.269531 883 734.835938 889.847656 C 725.40625 896.695312 734.605469 869.625 732.34375 854.007812 C 730.070312 838.386719 731.875 827.824219 732.914062 816.863281 C 733.972656 805.902344 752.230469 809.523438 752.230469 809.523438 L 753.757812 809.476562 " fill-opacity="1" fill-rule="nonzero"/><path fill="#fab47e" d="M 737.425781 819.832031 C 724.9375 839.5625 724.671875 852.96875 727.363281 860.949219 C 730.046875 868.929688 734.894531 880.761719 738.347656 854.472656 C 741.785156 828.183594 738.671875 819.808594 738.671875 819.808594 L 737.425781 819.832031 " fill-opacity="1" fill-rule="nonzero"/><path fill="#f68c2e" d="M 477.960938 771.25 C 479.917969 847.214844 513.738281 1345.851562 525.609375 1415.867188 C 537.476562 1485.882812 690.980469 1473.210938 703.882812 1443.996094 C 716.789062 1414.773438 739.09375 1032.476562 734.628906 918.59375 C 730.175781 804.722656 725.171875 678.472656 711.472656 643.050781 C 697.777344 607.628906 477.960938 771.25 477.960938 771.25 " fill-opacity="1" fill-rule="nonzero"/><path fill="#fccf9c" d="M 624.292969 1467.375 C 636.976562 1467.375 649.40625 1466.269531 660.5625 1464.289062 C 660.5625 1464.289062 660.550781 1464.277344 660.5625 1464.289062 C 649.40625 1466.269531 636.976562 1467.375 624.292969 1467.375 M 686.269531 1457.230469 C 695.328125 1453.527344 701.667969 1449.007812 703.882812 1443.996094 C 704.234375 1443.207031 704.585938 1442.167969 704.945312 1440.875 C 704.585938 1442.167969 704.234375 1443.207031 703.882812 1443.996094 C 701.679688 1449.007812 695.328125 1453.527344 686.269531 1457.230469 " fill-opacity="1" fill-rule="nonzero"/><path fill="#f8a155" d="M 660.5625 1464.289062 C 660.550781 1464.277344 660.5625 1464.289062 660.5625 1464.289062 C 670.34375 1462.554688 679.144531 1460.140625 686.269531 1457.230469 C 679.144531 1460.140625 670.34375 1462.554688 660.5625 1464.289062 " fill-opacity="1" fill-rule="nonzero"/><path fill="#fccf9c" d="M 528.882812 1426.851562 C 527.378906 1423.4375 526.273438 1419.78125 525.609375 1415.867188 C 514.71875 1351.652344 485.375 926.921875 479.070312 798.351562 C 485.375 926.921875 514.71875 1351.652344 525.609375 1415.867188 C 526.273438 1419.78125 527.378906 1423.4375 528.882812 1426.851562 " fill-opacity="1" fill-rule="nonzero"/><path fill="#f68726" d="M 624.292969 1467.375 C 584.34375 1467.375 541.859375 1456.355469 528.882812 1426.851562 C 527.378906 1423.4375 526.273438 1419.78125 525.609375 1415.867188 C 514.71875 1351.652344 485.375 926.921875 479.070312 798.351562 C 479.171875 798.351562 479.277344 798.339844 479.382812 798.328125 C 480.046875 808.382812 480.921875 820.25 481.984375 833.613281 C 489.046875 832.320312 501.894531 827.835938 518.367188 820.765625 C 524.839844 927.597656 536.019531 1089.9375 545.789062 1210.714844 C 544.855469 1274.824219 543.421875 1355.496094 540.671875 1442.589844 C 547.140625 1448.632812 555.195312 1453.457031 564.417969 1457.148438 C 563.882812 1429.960938 563.230469 1400.761719 562.4375 1370.300781 C 572.066406 1399.234375 608.3125 1411.882812 645.546875 1414.296875 C 644.417969 1432.070312 643.132812 1449.71875 641.664062 1466.59375 C 655.550781 1465.476562 668.316406 1463.078125 678.820312 1459.746094 C 677.757812 1444.625 676.664062 1429.320312 675.542969 1414.109375 C 688.261719 1413.152344 700.222656 1411.105469 710.296875 1408.261719 C 708.429688 1423.566406 706.625 1434.878906 704.945312 1440.875 C 704.585938 1442.167969 704.234375 1443.207031 703.882812 1443.996094 C 701.667969 1449.007812 695.328125 1453.527344 686.269531 1457.230469 C 679.144531 1460.140625 670.34375 1462.554688 660.5625 1464.289062 C 649.40625 1466.269531 636.976562 1467.375 624.292969 1467.375 " fill-opacity="1" fill-rule="nonzero"/><path fill="#fab47e" d="M 512.097656 394.007812 C 397.859375 448.890625 418.386719 610.144531 419.625 627.886719 C 420.859375 645.613281 465.859375 657.996094 478.253906 601.886719 C 490.632812 545.792969 520.363281 451.339844 520.363281 451.339844 C 520.363281 451.339844 566.191406 368.007812 512.097656 394.007812 " fill-opacity="1" fill-rule="nonzero"/><path fill="#fab47e" d="M 564.535156 348.21875 C 572.449219 359.972656 568.453125 371.105469 568.660156 379.5625 C 568.871094 388.019531 621.089844 388.019531 618.617188 379.773438 C 616.132812 371.527344 611.15625 368.429688 615.609375 348.417969 C 620.0625 328.417969 562.472656 348.21875 563.496094 348.21875 L 564.535156 348.21875 " fill-opacity="1" fill-rule="nonzero"/><path fill="#fcd0ad" d="M 614.117188 366.378906 C 613.847656 364.574219 613.742188 362.488281 613.871094 360.007812 C 613.90625 359.996094 613.941406 359.984375 613.964844 359.972656 C 613.882812 362.429688 614.046875 364.46875 614.328125 366.296875 C 614.257812 366.320312 614.1875 366.355469 614.117188 366.378906 M 569.488281 365.226562 C 569.488281 365.226562 569.488281 365.226562 569.476562 365.226562 C 569.476562 363.070312 569.324219 360.855469 568.871094 358.585938 C 568.882812 358.585938 568.882812 358.585938 568.882812 358.585938 C 569.324219 360.855469 569.488281 363.082031 569.488281 365.226562 " fill-opacity="1" fill-rule="nonzero"/><path fill="#f8a262" d="M 593.550781 370.5 C 593.527344 370.5 593.515625 370.5 593.492188 370.5 C 585.867188 370.488281 577.613281 368.542969 569.488281 365.226562 C 569.488281 363.082031 569.324219 360.855469 568.882812 358.585938 C 577.195312 362.046875 585.695312 363.898438 593.492188 363.898438 C 593.503906 363.898438 593.515625 363.898438 593.527344 363.898438 C 600.230469 363.898438 607.144531 362.441406 613.871094 360.007812 C 613.742188 362.488281 613.847656 364.574219 614.117188 366.378906 C 607.308594 368.871094 600.324219 370.5 593.550781 370.5 " fill-opacity="1" fill-rule="nonzero"/><path fill="#fab47e" d="M 593.492188 363.898438 C 567.867188 363.875 534.757812 344.050781 525.550781 312.121094 C 516.792969 281.789062 520.375 238.460938 518.753906 208.558594 C 520.363281 173.605469 654.828125 158.136719 658.277344 212.507812 C 661.730469 266.882812 660.003906 302.921875 659.140625 318.738281 C 658.277344 334.554688 623.570312 363.921875 593.492188 363.898438 " fill-opacity="1" fill-rule="nonzero"/><path fill="#fab47e" d="M 526.960938 262.210938 C 521.597656 246.125 507.769531 260.371094 511.28125 275.417969 C 514.789062 290.46875 516.433594 293.148438 514.578125 297.0625 C 512.726562 300.988281 518.496094 313.148438 529.023438 303.046875 C 539.550781 292.9375 526.960938 263.234375 526.960938 263.234375 L 526.960938 262.210938 " fill-opacity="1" fill-rule="nonzero"/><path fill="#fab47e" d="M 652.707031 262.234375 C 657.988281 246.125 671.894531 260.289062 668.457031 275.359375 C 665.027344 290.433594 663.394531 293.125 665.273438 297.027344 C 667.148438 300.941406 661.4375 313.136719 650.851562 303.082031 C 640.265625 293.03125 652.707031 263.269531 652.707031 263.269531 L 652.707031 262.234375 " fill-opacity="1" fill-rule="nonzero"/><path fill="#f8a262" d="M 593.621094 297.75 C 587.371094 297.75 580.960938 296.570312 582.289062 291.492188 C 584.761719 282.011719 586.613281 262.828125 586.613281 262.828125 C 586.613281 262.828125 590.542969 275.210938 588.875 286.542969 C 587.476562 296.152344 599.542969 296.886719 603.285156 296.886719 C 603.972656 296.886719 604.371094 296.863281 604.371094 296.863281 C 604.371094 296.863281 599.066406 297.75 593.621094 297.75 " fill-opacity="1" fill-rule="nonzero"/><path fill="#ffffff" d="M 567.625 311.292969 L 614.488281 311.292969 C 614.488281 311.292969 601.445312 325.726562 591.082031 325.726562 C 580.714844 325.726562 567.625 311.292969 567.625 311.292969 " fill-opacity="1" fill-rule="nonzero"/><path fill="#f7924a" d="M 544.820312 269.269531 C 542.535156 269.269531 542.058594 268.734375 544.503906 266.953125 C 544.503906 266.953125 546.570312 261.804688 558.542969 261.59375 C 558.730469 261.582031 558.902344 261.582031 559.078125 261.582031 C 570.65625 261.582031 575.0625 268.1875 575.0625 268.1875 C 575.0625 268.1875 573.3125 268.011719 568.789062 268.011719 C 566.527344 268.011719 563.566406 268.058594 559.789062 268.1875 C 553.449219 268.417969 547.699219 269.269531 544.820312 269.269531 " fill-opacity="1" fill-rule="nonzero"/><path fill="#f7924a" d="M 636.199219 269.269531 C 633.316406 269.269531 627.558594 268.417969 621.226562 268.1875 C 617.4375 268.058594 614.488281 268.011719 612.214844 268.011719 C 607.691406 268.011719 605.957031 268.1875 605.957031 268.1875 C 605.957031 268.1875 610.351562 261.582031 621.9375 261.582031 C 622.113281 261.582031 622.289062 261.582031 622.464844 261.59375 C 634.4375 261.804688 636.5 266.953125 636.5 266.953125 C 638.960938 268.734375 638.472656 269.269531 636.199219 269.269531 " fill-opacity="1" fill-rule="nonzero"/><path fill="#b96023" d="M 538.722656 257.050781 C 538.722656 257.050781 556.480469 254.207031 567.625 255.117188 C 578.78125 256.027344 580.015625 242.828125 571.132812 239.730469 C 562.261719 236.632812 551.324219 239.113281 543.886719 243.445312 C 536.460938 247.777344 531.027344 258.085938 538.722656 257.050781 " fill-opacity="1" fill-rule="nonzero"/><path fill="#b96023" d="M 638.085938 257.050781 C 638.085938 257.050781 620.332031 254.207031 609.171875 255.117188 C 598.027344 256.027344 596.792969 242.828125 605.675781 239.730469 C 614.546875 236.632812 625.484375 239.113281 632.921875 243.445312 C 640.347656 247.777344 645.78125 258.085938 638.085938 257.050781 " fill-opacity="1" fill-rule="nonzero"/><path fill="#f68323" d="M 518.367188 820.765625 C 517.609375 808.324219 516.921875 796.617188 516.304688 785.832031 C 568.8125 763.527344 659.863281 714.171875 715.9375 659.183594 C 717.746094 667.746094 719.378906 678.191406 720.847656 690.074219 C 665.878906 746.484375 572.554688 797.527344 518.367188 820.765625 " fill-opacity="1" fill-rule="nonzero"/><path fill="#f57f20" d="M 481.984375 833.613281 C 480.921875 820.25 480.046875 808.382812 479.382812 798.328125 C 485.597656 797.6875 498.816406 793.261719 516.304688 785.832031 C 516.921875 796.617188 517.609375 808.324219 518.367188 820.765625 C 501.894531 827.835938 489.046875 832.320312 481.984375 833.613281 " fill-opacity="1" fill-rule="nonzero"/><g clip-path="url(#id1)"><path fill="#f68c2e" d="M 630.519531 376.441406 C 609.3125 508.296875 492.347656 595.820312 475.535156 663.820312 C 458.714844 731.808594 470.40625 785.867188 475.535156 797.550781 C 480.640625 809.230469 722.644531 699.671875 759.925781 597.402344 C 797.207031 495.144531 790.621094 436.707031 740.1875 400.914062 C 689.742188 365.121094 630.519531 376.441406 630.519531 376.441406 " fill-opacity="1" fill-rule="nonzero"/></g><path fill="#fef4e7" d="M 475.199219 665.183594 C 475.199219 665.171875 475.199219 665.160156 475.210938 665.136719 C 475.210938 665.160156 475.199219 665.171875 475.199219 665.183594 M 475.246094 664.960938 C 475.257812 664.925781 475.269531 664.878906 475.28125 664.832031 C 475.269531 664.878906 475.257812 664.925781 475.246094 664.960938 M 475.304688 664.761719 C 475.335938 664.589844 475.382812 664.414062 475.429688 664.238281 C 475.382812 664.414062 475.335938 664.589844 475.304688 664.761719 M 475.441406 664.191406 C 475.453125 664.132812 475.464844 664.085938 475.476562 664.027344 C 475.464844 664.085938 475.453125 664.144531 475.441406 664.191406 M 740.539062 401.171875 C 740.527344 401.171875 740.515625 401.148438 740.503906 401.148438 C 740.515625 401.160156 740.527344 401.160156 740.539062 401.171875 M 740.433594 401.101562 C 740.410156 401.078125 740.386719 401.066406 740.363281 401.042969 C 740.386719 401.066406 740.410156 401.078125 740.433594 401.101562 M 740.316406 401.007812 C 740.269531 400.972656 740.222656 400.949219 740.1875 400.914062 C 740.222656 400.949219 740.269531 400.972656 740.316406 401.007812 " fill-opacity="1" fill-rule="nonzero"/><g clip-path="url(#id2)"><path fill="#f7973c" d="M 467.117188 724.621094 C 467.738281 706.800781 469.964844 686.800781 475.199219 665.183594 C 475.199219 665.171875 475.210938 665.160156 475.210938 665.136719 C 475.222656 665.089844 475.234375 665.019531 475.246094 664.960938 C 475.257812 664.925781 475.269531 664.878906 475.28125 664.832031 C 475.292969 664.808594 475.292969 664.785156 475.304688 664.761719 C 475.335938 664.589844 475.382812 664.414062 475.429688 664.238281 C 475.429688 664.226562 475.429688 664.203125 475.441406 664.191406 C 475.453125 664.144531 475.464844 664.085938 475.476562 664.027344 C 475.488281 663.960938 475.511719 663.890625 475.535156 663.820312 C 492.347656 595.820312 609.3125 508.296875 630.519531 376.441406 C 630.519531 376.441406 639.402344 374.742188 653.230469 374.742188 C 675.089844 374.742188 709.28125 378.992188 740.1875 400.914062 C 740.222656 400.949219 740.269531 400.972656 740.316406 401.007812 C 740.328125 401.019531 740.351562 401.03125 740.363281 401.042969 C 740.386719 401.066406 740.410156 401.078125 740.433594 401.101562 C 740.457031 401.113281 740.480469 401.125 740.503906 401.148438 C 740.515625 401.148438 740.527344 401.171875 740.539062 401.171875 C 771.503906 423.300781 785.679688 454.15625 783.277344 498.511719 C 783.765625 489.066406 783.5 480.238281 782.496094 471.953125 C 780.910156 479.5625 779.011719 487.433594 776.773438 495.648438 C 771.105469 471.277344 757.96875 452.269531 736.992188 437.382812 C 706.089844 415.460938 671.894531 411.210938 650.035156 411.210938 C 636.21875 411.210938 627.324219 412.910156 627.324219 412.910156 C 606.210938 544.230469 490.097656 631.589844 472.539062 699.472656 C 472.050781 694.6875 471.664062 689.515625 471.421875 684.015625 C 468.890625 698.496094 467.585938 712.125 467.117188 724.621094 " fill-opacity="1" fill-rule="nonzero"/></g><path fill="#fddfbc" d="M 475.535156 797.550781 C 475.464844 797.398438 475.394531 797.222656 475.316406 797.046875 C 475.394531 797.222656 475.464844 797.398438 475.535156 797.550781 M 475.316406 797.035156 C 475.316406 797.035156 475.316406 797.035156 475.316406 797.023438 C 475.316406 797.035156 475.316406 797.035156 475.316406 797.035156 " fill-opacity="1" fill-rule="nonzero"/><g clip-path="url(#id3)"><path fill="#f68a28" d="M 477.972656 798.410156 C 476.621094 798.410156 475.78125 798.132812 475.535156 797.550781 C 475.464844 797.398438 475.394531 797.222656 475.316406 797.046875 C 475.316406 797.046875 475.316406 797.035156 475.316406 797.035156 C 475.316406 797.035156 475.316406 797.035156 475.316406 797.023438 C 471.816406 788.511719 465.753906 761.617188 467.117188 724.621094 C 467.082031 725.484375 467.0625 726.34375 467.039062 727.207031 C 468.367188 718.519531 470.035156 709.5625 472.328125 700.289062 C 472.398438 700.007812 472.46875 699.742188 472.539062 699.472656 C 474.371094 717.410156 477.632812 730.039062 479.792969 734.964844 C 480.046875 735.546875 480.875 735.828125 482.238281 735.828125 C 508.367188 735.828125 728.738281 632.019531 764.179688 534.820312 C 769.253906 520.910156 773.402344 507.910156 776.773438 495.648438 C 778.929688 504.941406 780 515.003906 780 525.929688 C 781.726562 516.25 782.8125 507.132812 783.277344 498.511719 C 781.867188 525.882812 774.136719 558.429688 759.925781 597.402344 C 724.484375 694.617188 504.074219 798.410156 477.972656 798.410156 " fill-opacity="1" fill-rule="nonzero"/></g><g clip-path="url(#id4)"><path fill="#f79034" d="M 467.039062 727.207031 C 467.0625 726.34375 467.082031 725.484375 467.117188 724.621094 C 467.585938 712.125 468.890625 698.496094 471.421875 684.015625 C 471.664062 689.515625 472.050781 694.6875 472.539062 699.472656 C 472.46875 699.742188 472.398438 700.007812 472.328125 700.289062 C 470.035156 709.5625 468.367188 718.519531 467.039062 727.207031 M 780 525.929688 C 780 515.003906 778.929688 504.941406 776.773438 495.648438 C 779.011719 487.433594 780.910156 479.5625 782.496094 471.953125 C 783.5 480.238281 783.765625 489.066406 783.277344 498.511719 C 782.8125 507.132812 781.726562 516.25 780 525.929688 " fill-opacity="1" fill-rule="nonzero"/></g><path fill="#fab47e" d="M 417.433594 613.035156 C 421.886719 670.097656 446.890625 821.660156 449.480469 829.3125 C 452.101562 837.558594 465.3125 836.546875 467.609375 826.914062 C 469.835938 817.605469 475.757812 643.902344 469.566406 605.988281 C 463.386719 568.074219 414.820312 579.617188 417.433594 613.035156 " fill-opacity="1" fill-rule="nonzero"/><path fill="#fab47e" d="M 445.761719 810.386719 C 447.078125 822.988281 437.167969 826.691406 439.851562 839.074219 C 442.53125 851.457031 457.175781 883.628906 466.78125 890.21875 C 476.386719 896.824219 466.476562 870.011719 468.34375 854.332031 C 470.195312 838.667969 468.121094 828.136719 466.78125 817.210938 C 465.453125 806.285156 447.289062 810.386719 447.289062 810.386719 L 445.761719 810.386719 " fill-opacity="1" fill-rule="nonzero"/><path fill="#fab47e" d="M 462.351562 820.296875 C 475.359375 839.691406 475.980469 853.097656 473.496094 861.148438 C 471.023438 869.183594 466.476562 881.148438 462.351562 854.949219 C 458.222656 828.765625 461.113281 820.296875 461.113281 820.296875 L 462.351562 820.296875 " fill-opacity="1" fill-rule="nonzero"/><path fill="#f68525" d="M 562.4375 1370.300781 C 561.691406 1368.066406 561.105469 1365.722656 560.6875 1363.277344 C 557.179688 1342.566406 551.746094 1284.363281 545.789062 1210.714844 C 547.070312 1123.203125 547.445312 1066.546875 549.050781 1066.546875 C 550.113281 1066.546875 551.722656 1091.484375 554.484375 1148.898438 C 558.050781 1222.839844 560.617188 1299.902344 562.4375 1370.300781 " fill-opacity="1" fill-rule="nonzero"/><path fill="#f58121" d="M 564.417969 1457.148438 C 555.195312 1453.457031 547.140625 1448.632812 540.671875 1442.589844 C 543.421875 1355.496094 544.855469 1274.824219 545.789062 1210.714844 C 551.746094 1284.363281 557.179688 1342.566406 560.6875 1363.277344 C 561.105469 1365.722656 561.691406 1368.066406 562.4375 1370.300781 C 563.230469 1400.761719 563.882812 1429.960938 564.417969 1457.148438 " fill-opacity="1" fill-rule="nonzero"/><path fill="#f68525" d="M 659.140625 1414.726562 C 654.617188 1414.726562 650.070312 1414.585938 645.546875 1414.296875 C 651.085938 1326.902344 652.949219 1236.386719 656.214844 1219.738281 C 656.378906 1218.925781 656.5625 1218.527344 656.761719 1218.527344 C 659.945312 1218.527344 668.1875 1313.972656 675.542969 1414.109375 C 670.179688 1414.503906 664.679688 1414.726562 659.140625 1414.726562 " fill-opacity="1" fill-rule="nonzero"/><path fill="#f58121" d="M 641.664062 1466.59375 C 643.132812 1449.71875 644.417969 1432.070312 645.546875 1414.296875 C 650.070312 1414.585938 654.617188 1414.726562 659.140625 1414.726562 C 664.679688 1414.726562 670.179688 1414.503906 675.542969 1414.109375 C 676.664062 1429.320312 677.757812 1444.625 678.820312 1459.746094 C 668.316406 1463.078125 655.550781 1465.476562 641.664062 1466.59375 " fill-opacity="1" fill-rule="nonzero"/><path fill="#f68525" d="M 495.996094 690.902344 C 495.996094 690.902344 616.625 611.289062 674.390625 422.101562 C 674.390625 422.101562 699.980469 476.882812 622.042969 582.320312 C 544.121094 687.746094 495.996094 690.902344 495.996094 690.902344 " fill-opacity="1" fill-rule="nonzero"/><path fill="#f68525" d="M 558.972656 694.558594 C 558.972656 694.558594 627.371094 660.699219 715.308594 515.015625 C 715.925781 514.003906 739.335938 481.5625 739.964844 480.539062 C 739.964844 480.539062 721.171875 543.355469 675.847656 605.441406 C 630.519531 667.535156 558.972656 694.558594 558.972656 694.558594 " fill-opacity="1" fill-rule="nonzero"/></svg>