<svg xmlns="http://www.w3.org/2000/svg" xmlns:xlink="http://www.w3.org/1999/xlink" width="1587" zoomAndPan="magnify" viewBox="0 0 1190.25 1683.749949" height="2245" preserveAspectRatio="xMidYMid meet" version="1.0"><defs><clipPath id="id1"><path d="M 153 1119 L 995 1119 L 995 1371.53125 L 153 1371.53125 Z M 153 1119 " clip-rule="nonzero"/></clipPath><clipPath id="id2"><path d="M 153 1118 L 995 1118 L 995 1371.53125 L 153 1371.53125 Z M 153 1118 " clip-rule="nonzero"/></clipPath><clipPath id="id3"><path d="M 153 1119 L 835 1119 L 835 1371.53125 L 153 1371.53125 Z M 153 1119 " clip-rule="nonzero"/></clipPath><clipPath id="id4"><path d="M 304 1253 L 844 1253 L 844 1371.53125 L 304 1371.53125 Z M 304 1253 " clip-rule="nonzero"/></clipPath><clipPath id="id5"><path d="M 843 1236 L 995 1236 L 995 1371.53125 L 843 1371.53125 Z M 843 1236 " clip-rule="nonzero"/></clipPath></defs><g clip-path="url(#id1)"><path fill="#ffe4cc" d="M 994.476562 1245.363281 C 994.476562 1315.050781 937.992188 1371.535156 868.296875 1371.535156 L 279.464844 1371.535156 C 209.777344 1371.535156 153.285156 1315.054688 153.285156 1245.363281 C 153.285156 1175.675781 209.773438 1119.195312 279.464844 1119.195312 L 317.507812 1119.195312 C 331.09375 1139.484375 354.246094 1152.839844 380.492188 1152.839844 L 767.269531 1152.839844 C 793.597656 1152.839844 816.769531 1139.371094 830.253906 1119.195312 L 868.296875 1119.195312 C 937.984375 1119.195312 994.476562 1175.671875 994.476562 1245.363281 Z M 994.476562 1245.363281 " fill-opacity="1" fill-rule="nonzero"/></g><g clip-path="url(#id2)"><path fill="#fecb82" d="M 868.296875 1371.535156 L 843.0625 1371.535156 L 843.0625 1245.363281 L 607.527344 1304.242188 L 605.699219 1298.734375 C 596.742188 1271.878906 571.609375 1253.773438 543.324219 1253.773438 C 518.398438 1253.773438 506.292969 1265.179688 472.9375 1287.421875 L 304.699219 1245.363281 L 304.699219 1371.535156 L 279.464844 1371.535156 C 209.777344 1371.535156 153.285156 1315.054688 153.285156 1245.363281 C 153.285156 1175.710938 209.742188 1119.195312 279.464844 1119.195312 L 317.507812 1119.195312 C 331.09375 1139.484375 354.246094 1152.839844 380.492188 1152.839844 L 767.269531 1152.839844 C 793.597656 1152.839844 816.769531 1139.371094 830.253906 1119.195312 C 869.667969 1119.195312 915.253906 1113.910156 957.527344 1156.140625 C 1036.257812 1234.9375 981.09375 1371.535156 868.296875 1371.535156 Z M 868.296875 1371.535156 " fill-opacity="1" fill-rule="nonzero"/></g><g clip-path="url(#id3)"><path fill="#edac5f" d="M 830.253906 1119.195312 C 816.773438 1139.363281 793.609375 1152.839844 767.269531 1152.839844 L 380.492188 1152.839844 C 354.8125 1152.839844 331.402344 1139.953125 317.507812 1119.195312 C 312.3125 1119.210938 272.25 1119.355469 271.558594 1119.445312 C 205.308594 1123.535156 153.285156 1178.550781 153.285156 1245.363281 C 153.285156 1315.050781 209.773438 1371.535156 279.464844 1371.535156 L 304.699219 1371.535156 L 304.699219 1337.890625 L 279.464844 1337.890625 C 196.59375 1337.890625 156.359375 1237.550781 214.039062 1179.945312 C 233.847656 1160.113281 257.003906 1152.839844 283.839844 1152.839844 C 297.382812 1173.132812 320.515625 1186.484375 346.757812 1186.484375 L 758.941406 1186.484375 C 797.679688 1186.484375 829.851562 1157.347656 834.144531 1119.445312 C 827.578125 1119.023438 822.238281 1119.191406 830.253906 1119.191406 Z M 830.253906 1119.195312 " fill-opacity="1" fill-rule="nonzero"/></g><g clip-path="url(#id4)"><path fill="#f9cfac" d="M 489.761719 1337.890625 C 462.816406 1337.890625 451.378906 1303.585938 472.9375 1287.421875 L 404.441406 1314.820312 C 389.226562 1320.902344 388.136719 1337.890625 388.820312 1337.890625 C 353.253906 1337.890625 321.996094 1314.3125 312.226562 1280.121094 L 304.699219 1253.773438 L 304.699219 1371.535156 L 843.0625 1371.535156 L 843.0625 1337.890625 Z M 489.761719 1337.890625 " fill-opacity="1" fill-rule="nonzero"/></g><path fill="#f9cfac" d="M 843.0625 1077.050781 C 843.0625 1118.6875 809.230469 1152.839844 767.269531 1152.839844 L 380.492188 1152.839844 C 332.128906 1152.839844 295.957031 1107.992188 306.507812 1060.609375 L 328.191406 962.972656 C 353.902344 847.398438 456.445312 765.914062 573.882812 765.914062 C 692.230469 765.914062 794.070312 848.210938 819.570312 962.972656 C 842.894531 1067.917969 843.0625 1065.816406 843.0625 1077.050781 Z M 843.0625 1077.050781 " fill-opacity="1" fill-rule="nonzero"/><path fill="#ffe4cc" d="M 841.253906 1060.609375 L 819.570312 962.972656 C 809.539062 917.867188 787.753906 877.851562 757.871094 845.867188 C 733.820312 824.507812 704.925781 807.457031 673.375 796.535156 C 672.214844 798.132812 670.535156 799.6875 668.410156 801.160156 C 666.675781 800.421875 661.523438 798.414062 656.085938 796.535156 C 636.957031 822.929688 510.820312 822.507812 491.695312 796.554688 C 487.257812 798.070312 482.863281 799.730469 478.53125 801.496094 C 421.097656 835.8125 377.394531 892.992188 361.839844 962.972656 C 338.253906 1069.070312 339.449219 1062.960938 338.832031 1068.660156 C 343.015625 1106.558594 375.148438 1136.015625 414.140625 1136.015625 C 831.996094 1136.015625 803.339844 1137.027344 817.742188 1133.535156 C 837.019531 1117.292969 847.480469 1088.574219 841.253906 1060.609375 Z M 841.253906 1060.609375 " fill-opacity="1" fill-rule="nonzero"/><path fill="#f9cfac" d="M 632.765625 1110.78125 C 632.765625 1127.246094 625.972656 1142.15625 615.035156 1152.839844 L 557.058594 1152.839844 C 557.058594 1143.542969 564.585938 1136.015625 573.882812 1136.015625 C 587.804688 1136.015625 599.117188 1124.703125 599.117188 1110.78125 C 599.117188 1096.917969 587.863281 1085.546875 573.882812 1085.546875 C 564.585938 1085.546875 557.058594 1078.019531 557.058594 1068.726562 C 557.058594 1034.933594 632.765625 1053.621094 632.765625 1110.78125 Z M 632.765625 1110.78125 " fill-opacity="1" fill-rule="nonzero"/><path fill="#fecb82" d="M 695.390625 934.144531 L 725.296875 1068.726562 L 712.550781 1068.726562 C 668.195312 1068.726562 623.960938 1051.511719 590.703125 1018.257812 L 557.058594 1018.257812 C 525.011719 1050.300781 481.261719 1068.726562 435.210938 1068.726562 L 405.644531 1068.726562 L 421.898438 995.589844 C 453.191406 990.066406 463.945312 988.378906 474.535156 985.832031 C 574.027344 962.214844 649.398438 882.8125 669.503906 784.777344 C 733.808594 811.152344 786.867188 864.433594 811.328125 934.144531 Z M 695.390625 934.144531 " fill-opacity="1" fill-rule="nonzero"/><path fill="#edac5f" d="M 811.328125 934.144531 L 804.746094 934.144531 C 777.804688 872.015625 727.144531 824.179688 665.84375 800.128906 C 667.230469 795.0625 668.453125 789.953125 669.503906 784.777344 C 733.808594 811.152344 786.867188 864.433594 811.328125 934.144531 Z M 811.328125 934.144531 " fill-opacity="1" fill-rule="nonzero"/><path fill="#f9cfac" d="M 758.941406 1068.726562 L 725.296875 1068.726562 C 698.664062 948.816406 705.367188 978.96875 695.390625 934.144531 L 725.296875 934.144531 Z M 758.941406 1068.726562 " fill-opacity="1" fill-rule="nonzero"/><path fill="#f9cfac" d="M 725.296875 630.789062 C 717.0625 647.167969 710.117188 655.414062 690.597656 681.800781 L 686.769531 681.800781 C 672.28125 730.441406 627.253906 765.914062 573.882812 765.914062 C 520.445312 765.914062 475.429688 730.3125 460.992188 681.800781 L 457.164062 681.800781 L 437.566406 655.304688 C 368.421875 561.792969 418.21875 434.253906 523.410156 402.988281 L 523.410156 378.992188 C 523.410156 334.183594 577.847656 311.664062 609.570312 343.308594 C 627.0625 360.839844 624.351562 378.832031 624.351562 402.988281 C 720.605469 431.605469 770.46875 540.808594 725.296875 630.789062 Z M 725.296875 630.789062 " fill-opacity="1" fill-rule="nonzero"/><path fill="#ffe4cc" d="M 691.648438 564.042969 L 691.648438 614.511719 C 691.648438 679.433594 638.535156 734.203125 573.609375 734.054688 C 524.710938 733.945312 489.761719 694.402344 489.761719 649.886719 C 489.761719 580.011719 544.933594 530.398438 607.527344 530.398438 L 657.953125 530.398438 C 676.527344 530.398438 691.621094 545.441406 691.648438 564.042969 Z M 691.648438 564.042969 " fill-opacity="1" fill-rule="nonzero"/><path fill="#797a7a" d="M 573.882812 328.523438 C 536.773438 328.523438 506.585938 358.710938 506.585938 395.816406 L 506.585938 429.460938 L 641.175781 429.460938 L 641.175781 395.816406 C 641.175781 358.714844 610.988281 328.523438 573.882812 328.523438 Z M 573.882812 328.523438 " fill-opacity="1" fill-rule="nonzero"/><path fill="#6d6d6d" d="M 710.195312 655.304688 L 690.597656 681.800781 L 686.769531 681.800781 C 693.34375 659.722656 691.648438 650.851562 691.648438 564.042969 C 691.648438 552.351562 689.945312 541.058594 686.769531 530.398438 L 676.800781 530.398438 C 665.347656 530.398438 654.746094 523.929688 649.589844 513.574219 C 644.4375 503.269531 633.898438 496.753906 622.375 496.753906 L 525.386719 496.753906 C 513.929688 496.753906 503.332031 503.21875 498.175781 513.574219 C 493.023438 523.878906 482.484375 530.398438 470.960938 530.398438 L 460.992188 530.398438 C 454.417969 552.476562 456.113281 561.347656 456.113281 648.15625 C 456.113281 659.847656 457.816406 671.140625 460.992188 681.800781 L 457.164062 681.800781 L 437.566406 655.304688 C 368.421875 561.792969 418.21875 434.253906 523.410156 402.988281 C 555.09375 393.519531 591.90625 393.292969 624.351562 402.988281 C 729.542969 434.253906 779.34375 561.792969 710.195312 655.304688 Z M 710.195312 655.304688 " fill-opacity="1" fill-rule="nonzero"/><g clip-path="url(#id5)"><path fill="#edac5f" d="M 868.296875 1371.535156 L 843.0625 1371.535156 L 843.0625 1337.890625 L 885.121094 1337.890625 C 942.953125 1337.890625 989.957031 1293.132812 994.183594 1236.785156 C 999.085938 1310.320312 940.839844 1371.535156 868.296875 1371.535156 Z M 868.296875 1371.535156 " fill-opacity="1" fill-rule="nonzero"/></g><path fill="#edac5f" d="M 727.398438 1068.726562 C 712.171875 1068.726562 705.421875 1068.941406 694.234375 1067.738281 C 660.101562 1064.097656 627.78125 1050.324219 601.472656 1028.160156 C 591.265625 1019.539062 578.402344 1016.722656 566.519531 1018.78125 C 544.851562 1022.222656 542.824219 1038.304688 501.160156 1055.601562 C 463.886719 1071.050781 435.835938 1068.726562 405.644531 1068.726562 L 421.898438 995.589844 L 456.914062 989.425781 L 453.128906 999.605469 C 450.289062 1007.238281 455.714844 1015.4375 463.875 1015.839844 C 476.703125 1013.695312 489.214844 1010.078125 501.160156 1005.136719 C 542.417969 988.003906 544.996094 971.730469 566.519531 968.316406 C 578.320312 966.269531 591.15625 968.980469 601.472656 977.691406 C 632.246094 1003.605469 670.734375 1018.257812 714.78125 1018.257812 Z M 727.398438 1068.726562 " fill-opacity="1" fill-rule="nonzero"/><path fill="#f9cfac" d="M 472.539062 920.980469 L 457.355469 989.34375 L 421.898438 995.589844 L 439.691406 913.660156 C 441.710938 904.597656 450.6875 898.878906 459.753906 900.898438 C 468.835938 902.917969 474.558594 911.894531 472.539062 920.980469 Z M 472.539062 920.980469 " fill-opacity="1" fill-rule="nonzero"/></svg>