<svg xmlns="http://www.w3.org/2000/svg" xmlns:xlink="http://www.w3.org/1999/xlink" width="1587" zoomAndPan="magnify" viewBox="0 0 1190.25 1683.749949" height="2245" preserveAspectRatio="xMidYMid meet" version="1.0"><defs><clipPath id="id1"><path d="M 541 342.109375 L 612 342.109375 L 612 394 L 541 394 Z M 541 342.109375 " clip-rule="nonzero"/></clipPath></defs><path fill="#5292d5" d="M 399.0625 854.457031 C 399.0625 854.457031 367.859375 820.664062 385.105469 785.167969 C 385.105469 785.167969 391.214844 751.539062 431.472656 707.671875 C 431.472656 707.671875 424.339844 644.984375 486.949219 631.734375 C 486.949219 631.734375 517.113281 618.316406 541.234375 656.46875 C 541.234375 656.46875 546.734375 673.984375 535.390625 694.40625 C 535.390625 694.40625 515.980469 758.246094 469.972656 795.425781 C 469.972656 795.425781 426.527344 852.363281 399.0625 854.457031 " fill-opacity="1" fill-rule="nonzero"/><path fill="#f9ae0c" d="M 420.8125 720.019531 C 414.523438 727.757812 409.304688 735.0625 404.988281 741.808594 C 427.695312 760.152344 452.582031 775.96875 479.742188 786.753906 C 486.832031 779.910156 493.179688 772.492188 498.832031 764.9375 C 475.925781 744.890625 449.773438 728.878906 420.8125 720.019531 " fill-opacity="1" fill-rule="nonzero"/><path fill="#172345" d="M 384.382812 799.496094 C 387.109375 784.792969 389.863281 774.097656 394.605469 763.496094 C 399.347656 752.890625 406.113281 742.300781 416.949219 727.917969 C 417.566406 727.101562 417.40625 725.925781 416.582031 725.304688 C 415.757812 724.683594 414.585938 724.847656 413.96875 725.671875 C 403.0625 740.164062 396.109375 750.992188 391.199219 761.96875 C 386.289062 772.957031 383.457031 784 380.710938 798.8125 C 380.523438 799.824219 381.195312 800.792969 382.207031 800.980469 C 383.222656 801.175781 384.195312 800.503906 384.382812 799.496094 " fill-opacity="1" fill-rule="nonzero"/><path fill="#5292d5" d="M 822.042969 1047.628906 C 857.230469 1036.519531 884.023438 1065.546875 912.722656 1051.660156 C 924.304688 1046.054688 945.371094 1036.882812 956.585938 1045.09375 C 964.375 1050.792969 962.960938 1053.050781 970.707031 1060.066406 C 979.003906 1067.589844 1005.144531 1078.753906 997.757812 1089.164062 C 990.875 1098.859375 945.164062 1099.011719 933.316406 1101.179688 C 897.539062 1107.738281 853.96875 1107.304688 819.316406 1094.914062 C 785.96875 1083.007812 799.433594 1054.773438 822.042969 1047.628906 " fill-opacity="1" fill-rule="nonzero"/><path fill="#f46e4a" d="M 372.90625 1052.984375 C 332.546875 1066.460938 289.902344 1070.371094 249.460938 1086.453125 C 171.257812 1117.5625 118.957031 1197.59375 208.703125 1254.800781 C 265.761719 1150.8125 408.542969 1262.742188 492.132812 1250.695312 C 609.441406 1233.792969 601.085938 1197.046875 605.378906 1161.070312 C 608.65625 1133.558594 574.9375 1138.054688 576.769531 1107.949219 C 578.210938 1084.3125 556.4375 1059.570312 548.277344 1034.132812 C 535.320312 993.75 486.558594 960.539062 461.238281 998.785156 C 432.738281 1041.820312 387.726562 1048.042969 372.90625 1052.984375 " fill-opacity="1" fill-rule="nonzero"/><path fill="#5292d5" d="M 1051.792969 1148.871094 C 1035.78125 1118.378906 997.742188 1117.855469 969.566406 1106.804688 C 939.957031 1095.179688 890.867188 1082.394531 867.261719 1060.675781 C 855.453125 1049.804688 834.566406 1043.203125 820.226562 1045.914062 C 795.390625 1050.617188 789.449219 1076.761719 819.976562 1092.78125 C 842.113281 1104.402344 877.894531 1109.792969 894.160156 1131.269531 C 925.617188 1172.789062 972.015625 1238.789062 1034.132812 1215.742188 C 1034.132812 1215.742188 1070.878906 1196.996094 1051.792969 1148.871094 " fill-opacity="1" fill-rule="nonzero"/><path fill="#f46e4a" d="M 925.105469 1161.070312 C 968.929688 1219.265625 1001.632812 1203.449219 1035.996094 1215.742188 C 1031.578125 1242.394531 947.371094 1257.738281 925.105469 1260.550781 C 878.351562 1266.457031 832.195312 1268.019531 783.300781 1268.019531 C 711.226562 1268.019531 630.605469 1261.007812 576.179688 1208.945312 C 552.574219 1186.363281 538.054688 1149.675781 534.453125 1118.84375 C 532.082031 1098.5625 536.886719 1079.921875 539.476562 1061.574219 C 541.332031 1048.421875 541.679688 1018.199219 546.949219 1011.839844 C 546.949219 1011.839844 616.179688 927.128906 682.484375 945.285156 C 706.40625 951.828125 755.308594 1009.925781 777.476562 1064.214844 C 786.675781 1086.71875 884.054688 1105.375 908.929688 1130.105469 C 908.929688 1130.105469 915.496094 1148.320312 925.105469 1161.070312 " fill-opacity="1" fill-rule="nonzero"/><path fill="#1a1715" d="M 654.675781 434.394531 C 658.738281 441.390625 671.269531 437.914062 678.824219 453.828125 C 685.386719 467.675781 676.1875 480.152344 668.246094 486.574219 C 663.230469 490.621094 665.480469 490.789062 683.75 507.144531 C 701.957031 523.4375 669.738281 540.070312 687.726562 553.363281 C 695.289062 558.953125 704.507812 560.328125 709.035156 568.871094 C 714.570312 579.316406 707.59375 584.210938 706.351562 593.609375 C 704.785156 605.304688 716.695312 607.285156 723.164062 615.125 C 729.171875 622.417969 727.640625 632.546875 720.507812 639.667969 C 712.449219 647.695312 703.964844 645.113281 694.257812 643.550781 C 680.953125 641.40625 680.390625 644.339844 670.648438 651.195312 C 647.917969 667.171875 634.058594 649.351562 610.503906 647.753906 C 596.539062 646.808594 595.054688 652.800781 585.605469 659.332031 C 576.738281 665.464844 563.363281 665.851562 552.695312 663.566406 C 541.949219 661.253906 536.328125 654.195312 526.414062 650.074219 C 515.613281 645.582031 505.089844 648.855469 493.566406 650.285156 C 468.699219 653.375 455.78125 630.773438 469.59375 613.65625 C 475.90625 605.820312 483.632812 600.835938 479.148438 590.292969 C 476.59375 584.269531 472.117188 583.332031 473.792969 576.765625 C 474.898438 572.421875 480.238281 569.003906 484.039062 566.339844 C 491.847656 560.847656 499.644531 558.6875 497.210938 548.574219 C 495.035156 539.53125 486.644531 535.148438 490.585938 524.90625 C 493.941406 516.171875 507.007812 512.171875 509.394531 503.542969 C 512.101562 493.792969 501.175781 487.789062 497.800781 479.5625 C 487.933594 455.53125 514.226562 434.984375 539.890625 433.742188 C 554.121094 433.042969 566.128906 432.867188 579.484375 436.261719 C 596.515625 440.59375 603.394531 419.902344 616.601562 413.789062 C 616.601562 413.789062 648.851562 400.8125 654.675781 434.394531 " fill-opacity="1" fill-rule="nonzero"/><path fill="#5292d5" d="M 553.972656 540.972656 L 618.464844 540.972656 L 618.464844 601.621094 L 553.972656 601.621094 L 553.972656 540.972656 " fill-opacity="1" fill-rule="nonzero"/><path fill="#4277c4" d="M 618.464844 550.980469 L 618.464844 540.972656 L 553.972656 540.972656 L 553.972656 586.355469 C 553.972656 586.355469 603.007812 575.074219 618.464844 550.980469 " fill-opacity="1" fill-rule="nonzero"/><path fill="#5292d5" d="M 523.898438 481.558594 C 521.636719 496.175781 521.667969 509.957031 528.285156 523.890625 C 538.460938 545.34375 555.976562 570.820312 582.023438 560.273438 C 593.460938 555.640625 606.441406 553.667969 616.667969 546.710938 C 628.15625 538.898438 634.628906 532.320312 635.976562 516.097656 C 638.164062 489.867188 646.167969 451.640625 635.339844 427.234375 C 626.136719 406.457031 604.980469 398.960938 583.707031 399.171875 C 567.484375 399.335938 541.414062 403.054688 531.855469 418.296875 C 522.390625 433.421875 526.652344 463.707031 523.898438 481.558594 " fill-opacity="1" fill-rule="nonzero"/><path fill="#5292d5" d="M 702.769531 632.363281 L 609.507812 591.6875 L 562.925781 591.6875 L 469.671875 632.363281 C 469.671875 632.363281 441.785156 646.433594 448.316406 681.878906 L 493.097656 876.1875 L 484.167969 1012.117188 L 688.273438 1012.117188 L 682.484375 881.789062 L 727.023438 683.429688 C 733.554688 647.988281 702.769531 632.363281 702.769531 632.363281 " fill-opacity="1" fill-rule="nonzero"/><path fill="#5292d5" d="M 659.945312 490.546875 C 658.898438 500.097656 652.195312 507.199219 644.980469 506.410156 C 637.757812 505.625 632.75 497.234375 633.796875 487.675781 C 634.84375 478.117188 641.550781 471.023438 648.777344 471.816406 C 655.988281 472.601562 661 480.988281 659.945312 490.546875 " fill-opacity="1" fill-rule="nonzero"/><path fill="#4277c4" d="M 647.425781 481.613281 C 648.144531 481.949219 648.726562 482.589844 649.175781 483.628906 C 649.625 484.65625 649.871094 486.039062 649.863281 487.511719 C 649.863281 489.214844 649.539062 491.050781 648.964844 492.589844 C 648.390625 494.148438 647.550781 495.394531 646.730469 496.03125 C 645.914062 496.679688 645.785156 497.855469 646.421875 498.664062 C 647.066406 499.46875 648.238281 499.613281 649.054688 498.96875 C 650.632812 497.703125 651.71875 495.894531 652.464844 493.898438 C 653.214844 491.894531 653.601562 489.679688 653.609375 487.511719 C 653.601562 485.644531 653.316406 483.804688 652.617188 482.160156 C 651.925781 480.527344 650.753906 479.039062 649.027344 478.234375 C 648.089844 477.792969 646.976562 478.1875 646.535156 479.121094 C 646.09375 480.054688 646.488281 481.171875 647.425781 481.613281 " fill-opacity="1" fill-rule="nonzero"/><path fill="#4277c4" d="M 644.691406 488.910156 C 645.300781 488.796875 646.039062 488.726562 646.773438 488.726562 C 648.285156 488.703125 649.667969 489.113281 650.101562 489.621094 C 650.835938 490.347656 652.019531 490.347656 652.75 489.621094 C 653.476562 488.890625 653.476562 487.707031 652.75 486.972656 C 651.015625 485.308594 648.75 485.007812 646.773438 484.976562 C 645.785156 484.984375 644.851562 485.082031 644.019531 485.230469 C 643.003906 485.417969 642.332031 486.398438 642.511719 487.40625 C 642.699219 488.425781 643.675781 489.097656 644.691406 488.910156 " fill-opacity="1" fill-rule="nonzero"/><path fill="#1a1715" d="M 634.316406 495.4375 L 637.761719 477.316406 C 637.761719 477.316406 642.480469 468.292969 654.851562 473.972656 C 654.851562 473.972656 666.34375 423.992188 632.285156 395.386719 C 632.285156 395.386719 594.925781 356.371094 543.207031 391.964844 C 543.207031 391.964844 529.820312 403.949219 537.085938 410.933594 C 542.355469 415.988281 542.488281 418.6875 549.710938 421.410156 C 567.703125 428.183594 603.058594 415.902344 615.3125 436.210938 C 615.3125 436.21875 618.460938 442.167969 617.746094 455.613281 C 617.746094 455.613281 622.960938 464.542969 626.210938 474.851562 C 626.210938 474.851562 629.523438 493.859375 615.996094 500.855469 C 615.996094 500.855469 613.195312 502.808594 615.996094 506.96875 C 615.996094 506.96875 631.515625 510.136719 634.316406 495.4375 " fill-opacity="1" fill-rule="nonzero"/><path fill="#1a1715" d="M 524.816406 471.046875 C 523.496094 446.332031 534.925781 420.789062 534.925781 420.789062 C 542.527344 408.664062 549.707031 410.226562 549.707031 410.226562 C 547.515625 390.902344 528.796875 407.832031 528.796875 407.832031 C 528.796875 407.832031 507.296875 427.523438 524.816406 471.046875 " fill-opacity="1" fill-rule="nonzero"/><path fill="#4277c4" d="M 692.320312 838.746094 L 708.625 765.1875 C 702.574219 778.078125 691.488281 788.863281 661.492188 788.148438 C 637.957031 787.589844 593.449219 791.6875 587.710938 762.910156 C 580.25 788.863281 541.046875 792.882812 514.78125 790.132812 C 502.121094 788.808594 488.089844 785.992188 480.523438 774.628906 C 474.914062 766.21875 468.445312 759.890625 463.804688 751.210938 L 486.496094 848.191406 C 494.957031 830.238281 499.90625 816.484375 514.5625 808.339844 C 541.113281 793.589844 596.390625 801.871094 626.660156 802.066406 C 626.660156 802.066406 679.386719 799.578125 692.320312 838.746094 " fill-opacity="1" fill-rule="nonzero"/><path fill="#4277c4" d="M 534.648438 765.191406 C 534.648438 769.230469 531.4375 772.519531 527.460938 772.519531 C 523.496094 772.519531 520.277344 769.230469 520.277344 765.191406 C 520.277344 761.140625 523.496094 757.859375 527.460938 757.859375 C 531.4375 757.859375 534.648438 761.140625 534.648438 765.191406 " fill-opacity="1" fill-rule="nonzero"/><path fill="#4277c4" d="M 529.710938 765.191406 C 529.710938 766.457031 528.699219 767.472656 527.460938 767.472656 C 526.230469 767.472656 525.234375 766.457031 525.234375 765.191406 C 525.234375 763.929688 526.230469 762.910156 527.460938 762.910156 C 528.699219 762.910156 529.710938 763.929688 529.710938 765.191406 " fill-opacity="1" fill-rule="nonzero"/><path fill="#4277c4" d="M 667.359375 765.191406 C 667.359375 769.230469 664.140625 772.519531 660.171875 772.519531 C 656.214844 772.519531 652.996094 769.230469 652.996094 765.191406 C 652.996094 761.140625 656.214844 757.859375 660.171875 757.859375 C 664.140625 757.859375 667.359375 761.140625 667.359375 765.191406 " fill-opacity="1" fill-rule="nonzero"/><path fill="#4277c4" d="M 662.421875 765.191406 C 662.421875 766.457031 661.40625 767.472656 660.179688 767.472656 C 658.941406 767.472656 657.941406 766.457031 657.941406 765.191406 C 657.941406 763.929688 658.941406 762.910156 660.179688 762.910156 C 661.40625 762.910156 662.421875 763.929688 662.421875 765.191406 " fill-opacity="1" fill-rule="nonzero"/><path fill="#4277c4" d="M 685.214844 645.015625 C 684.078125 641.566406 681.496094 638.964844 678.488281 637.4375 C 676.972656 636.671875 675.359375 636.109375 673.714844 635.695312 C 672.894531 635.496094 672.054688 635.339844 671.226562 635.222656 C 670.402344 635.105469 669.503906 635.023438 668.773438 635.007812 L 669.109375 634.992188 C 659.945312 636.871094 650.765625 638.589844 641.5625 640.203125 C 636.96875 641.050781 632.359375 641.789062 627.753906 642.539062 C 623.152344 643.28125 618.550781 644.101562 613.929688 644.757812 L 616.921875 642.039062 C 616.742188 642.695312 616.621094 643.0625 616.449219 643.527344 C 616.292969 643.96875 616.113281 644.40625 615.917969 644.820312 C 615.539062 645.664062 615.089844 646.472656 614.570312 647.273438 C 613.554688 648.84375 612.214844 650.332031 610.578125 651.496094 C 608.976562 652.6875 607.039062 653.546875 605.097656 653.914062 C 604.109375 654.160156 603.148438 654.175781 602.175781 654.25 C 601.210938 654.273438 600.300781 654.152344 599.359375 654.089844 L 600.078125 654.125 C 598.003906 654.191406 595.910156 654.167969 593.785156 653.882812 C 592.707031 653.6875 591.648438 653.570312 590.582031 653.246094 C 589.507812 652.992188 588.46875 652.621094 587.425781 652.191406 C 585.355469 651.308594 583.351562 650.113281 581.640625 648.53125 C 580.769531 647.757812 579.984375 646.863281 579.28125 645.914062 C 578.929688 645.425781 578.601562 644.941406 578.300781 644.394531 C 577.980469 643.824219 577.746094 643.390625 577.421875 642.5 L 580.277344 644.863281 C 571.101562 643.316406 561.9375 641.851562 552.796875 640.121094 C 543.644531 638.488281 534.523438 636.671875 525.414062 634.722656 L 525.066406 634.648438 L 525.035156 634.605469 L 524.421875 634.417969 L 523.578125 634.3125 C 523.003906 634.296875 522.390625 634.363281 521.789062 634.507812 C 520.574219 634.804688 519.351562 635.351562 518.230469 636.128906 C 515.976562 637.632812 513.992188 639.695312 512.214844 641.90625 C 513.570312 639.421875 515.066406 636.914062 517.289062 634.925781 C 518.359375 633.902344 519.648438 633.042969 521.101562 632.417969 C 521.84375 632.121094 522.636719 631.90625 523.460938 631.824219 C 523.882812 631.777344 524.316406 631.769531 524.75 631.792969 C 525.21875 631.851562 525.574219 631.859375 526.1875 632.09375 L 525.808594 631.988281 C 535.09375 632.695312 544.363281 633.550781 553.597656 634.574219 C 562.855469 635.511719 572.070312 636.714844 581.285156 637.835938 L 584.144531 640.199219 L 584.503906 640.828125 L 585.058594 641.664062 C 585.476562 642.203125 585.945312 642.734375 586.492188 643.191406 C 587.546875 644.128906 588.816406 644.878906 590.210938 645.449219 C 590.914062 645.714844 591.625 645.972656 592.394531 646.136719 C 593.132812 646.367188 593.949219 646.421875 594.71875 646.5625 C 596.320312 646.757812 597.976562 646.746094 599.648438 646.675781 L 600.382812 646.703125 C 600.945312 646.710938 601.515625 646.824219 602.058594 646.808594 C 602.589844 646.769531 603.136719 646.800781 603.625 646.660156 C 604.617188 646.503906 605.507812 646.105469 606.328125 645.539062 C 607.144531 644.976562 607.886719 644.207031 608.515625 643.273438 C 608.820312 642.800781 609.121094 642.3125 609.359375 641.789062 L 609.703125 641.003906 L 609.933594 640.339844 L 610.773438 637.941406 L 612.921875 637.632812 C 617.542969 636.984375 622.195312 636.503906 626.824219 635.929688 C 631.453125 635.367188 636.089844 634.804688 640.746094 634.351562 C 650.027344 633.339844 659.324219 632.453125 668.644531 631.703125 L 668.929688 631.679688 L 668.996094 631.695312 C 670.039062 631.84375 670.910156 632.054688 671.839844 632.304688 C 672.742188 632.546875 673.644531 632.839844 674.515625 633.175781 C 676.277344 633.855469 677.949219 634.746094 679.484375 635.855469 C 682.566406 638.011719 684.785156 641.425781 685.214844 645.015625 " fill-opacity="1" fill-rule="nonzero"/><path fill="#4277c4" d="M 495.390625 949.308594 C 498.671875 949.660156 501.835938 950.339844 505.007812 950.992188 C 508.148438 951.726562 511.273438 952.496094 514.351562 953.398438 C 517.453125 954.199219 520.464844 955.292969 523.527344 956.226562 C 526.558594 957.25 529.5625 958.34375 532.550781 959.480469 L 533.988281 960.027344 L 534.597656 961.378906 C 535.226562 962.785156 535.835938 964.199219 536.347656 965.648438 C 536.816406 967.121094 537.375 968.550781 537.722656 970.089844 C 538.515625 973.105469 547.929688 1006.492188 547.84375 1009.925781 C 545.160156 1007.796875 534.296875 975.070312 532.5 972.519531 C 531.542969 971.273438 530.808594 969.925781 529.984375 968.609375 C 529.199219 967.285156 528.511719 965.917969 527.84375 964.535156 L 529.894531 966.441406 C 526.910156 965.3125 523.933594 964.117188 521 962.867188 C 518.089844 961.527344 515.125 960.339844 512.257812 958.871094 C 509.363281 957.496094 506.523438 956 503.6875 954.453125 C 500.886719 952.832031 498.074219 951.230469 495.390625 949.308594 " fill-opacity="1" fill-rule="nonzero"/><path fill="#4277c4" d="M 646.128906 961.769531 C 643.113281 964.714844 639.816406 966.921875 636.4375 968.953125 C 633.039062 970.941406 629.53125 972.648438 625.921875 974.105469 L 627.566406 972.773438 C 626.28125 974.636719 624.773438 976.378906 623.039062 977.9375 C 621.25 979.476562 605.035156 1013.433594 602.484375 1014.433594 C 602.5 1011.699219 617.453125 976.867188 618.238281 974.652344 C 619.082031 972.460938 620.144531 970.441406 621.417969 968.554688 L 622.035156 967.667969 L 623.078125 967.226562 C 626.675781 965.722656 630.378906 964.464844 634.191406 963.488281 C 638.007812 962.542969 641.921875 961.796875 646.128906 961.769531 " fill-opacity="1" fill-rule="nonzero"/><path fill="#4277c4" d="M 536.425781 807.09375 C 530.261719 822.582031 528.363281 858.160156 536.351562 863.941406 C 547.019531 871.65625 570.132812 874.640625 583.738281 870.679688 C 570.289062 869.570312 558.519531 861.457031 548.609375 853.269531 C 538.5 844.914062 535.125 819.335938 536.425781 807.09375 " fill-opacity="1" fill-rule="nonzero"/><path fill="#4277c4" d="M 543.191406 863.949219 C 538.90625 874.753906 537.570312 899.558594 543.136719 903.589844 C 550.582031 908.972656 566.695312 911.046875 576.179688 908.285156 C 566.804688 907.507812 558.589844 901.863281 551.691406 896.148438 C 544.644531 890.339844 542.289062 872.488281 543.191406 863.949219 " fill-opacity="1" fill-rule="nonzero"/><path fill="#4277c4" d="M 547.125 903.65625 C 543.691406 912.265625 542.628906 932.066406 547.078125 935.273438 C 553.015625 939.5625 565.863281 941.230469 573.433594 939.027344 C 565.960938 938.40625 559.402344 933.898438 553.890625 929.335938 C 548.273438 924.699219 546.394531 910.460938 547.125 903.65625 " fill-opacity="1" fill-rule="nonzero"/><path fill="#4277c4" d="M 637.351562 812.96875 C 640.886719 829.257812 636.921875 864.671875 628.089844 869.0625 C 616.300781 874.925781 593.015625 874.066406 580.238281 867.917969 C 593.6875 869.039062 606.628906 862.976562 617.757812 856.523438 C 629.089844 849.949219 636.621094 825.257812 637.351562 812.96875 " fill-opacity="1" fill-rule="nonzero"/><path fill="#4277c4" d="M 621.335938 867.941406 C 623.800781 879.308594 621.035156 904 614.886719 907.050781 C 606.660156 911.140625 590.417969 910.550781 581.511719 906.265625 C 590.882812 907.035156 599.917969 902.8125 607.667969 898.308594 C 615.582031 893.730469 620.832031 876.519531 621.335938 867.941406 " fill-opacity="1" fill-rule="nonzero"/><path fill="#4277c4" d="M 610.945312 906.46875 C 612.902344 915.523438 610.707031 935.21875 605.796875 937.664062 C 599.230469 940.925781 586.28125 940.457031 579.175781 937.039062 C 586.648438 937.652344 593.863281 934.277344 600.039062 930.691406 C 606.34375 927.03125 610.535156 913.304688 610.945312 906.46875 " fill-opacity="1" fill-rule="nonzero"/><path fill="#4277c4" d="M 584.515625 807.542969 C 584.515625 807.542969 585.328125 816.277344 585.339844 829.285156 C 585.394531 835.785156 585.25 843.351562 584.90625 851.457031 C 584.691406 855.503906 584.597656 859.691406 584.273438 863.933594 C 583.972656 868.171875 583.664062 872.480469 583.367188 876.796875 C 582.960938 881.085938 582.550781 885.386719 582.140625 889.628906 C 581.789062 893.859375 581.183594 898.019531 580.734375 902.035156 C 579.753906 910.078125 578.636719 917.570312 577.515625 923.980469 C 575.363281 936.8125 573.109375 945.285156 573.109375 945.285156 C 573.109375 945.285156 572.304688 936.550781 572.296875 923.546875 C 572.238281 917.042969 572.371094 909.472656 572.722656 901.367188 C 572.933594 897.328125 573.015625 893.132812 573.363281 888.894531 C 573.664062 884.652344 573.964844 880.347656 574.269531 876.039062 C 574.683594 871.738281 575.085938 867.441406 575.484375 863.207031 C 575.863281 858.972656 576.460938 854.816406 576.910156 850.800781 C 577.898438 842.746094 579.011719 835.253906 580.128906 828.855469 C 582.28125 816.023438 584.515625 807.542969 584.515625 807.542969 " fill-opacity="1" fill-rule="nonzero"/><path fill="#4277c4" d="M 554.0625 515.488281 C 556.097656 516.585938 558.300781 517.035156 560.4375 517.027344 C 564.195312 517.023438 567.777344 515.691406 570.539062 513.886719 C 571.914062 512.976562 573.089844 511.941406 573.976562 510.816406 C 574.847656 509.683594 575.488281 508.4375 575.519531 506.976562 C 575.527344 505.945312 574.6875 505.101562 573.65625 505.09375 C 572.625 505.09375 571.785156 505.925781 571.773438 506.957031 C 571.785156 507.171875 571.601562 507.792969 571.023438 508.507812 C 570.1875 509.601562 568.601562 510.859375 566.695312 511.769531 C 564.792969 512.691406 562.566406 513.296875 560.4375 513.289062 C 558.816406 513.289062 557.257812 512.953125 555.832031 512.191406 C 554.921875 511.703125 553.789062 512.046875 553.300781 512.953125 C 552.808594 513.863281 553.152344 515 554.0625 515.488281 " fill-opacity="1" fill-rule="nonzero"/><path fill="#4277c4" d="M 558.800781 465.667969 C 558.792969 471.15625 558.082031 474.816406 556.648438 477.859375 C 555.21875 480.910156 552.980469 483.496094 549.652344 486.675781 C 548.902344 487.378906 548.328125 488.367188 548.335938 489.480469 C 548.332031 490.300781 548.644531 491.035156 549.039062 491.597656 C 549.75 492.582031 550.699219 493.230469 551.777344 493.824219 C 555.019531 495.527344 559.632812 496.554688 562.894531 496.582031 C 563.613281 496.582031 564.269531 496.53125 564.90625 496.382812 C 565.917969 496.132812 566.527344 495.125 566.28125 494.113281 C 566.042969 493.113281 565.027344 492.5 564.023438 492.746094 C 563.828125 492.792969 563.414062 492.84375 562.894531 492.84375 C 561.050781 492.851562 557.964844 492.28125 555.5625 491.410156 C 554.359375 490.972656 553.308594 490.453125 552.6875 489.988281 L 552.109375 489.449219 L 552.0625 489.375 L 551.785156 489.480469 L 552.078125 489.480469 L 552.0625 489.375 L 551.785156 489.480469 L 552.078125 489.480469 L 551.8125 489.480469 L 552.054688 489.597656 L 552.078125 489.480469 L 551.8125 489.480469 L 552.054688 489.597656 L 552.238281 489.382812 C 555.671875 486.097656 558.296875 483.144531 560.035156 479.449219 C 561.773438 475.765625 562.542969 471.464844 562.542969 465.667969 C 562.542969 464.636719 561.703125 463.800781 560.667969 463.800781 C 559.636719 463.800781 558.800781 464.636719 558.800781 465.667969 " fill-opacity="1" fill-rule="nonzero"/><path fill="#4277c4" d="M 528.339844 483.921875 C 528.328125 486.367188 532.828125 488.34375 538.367188 488.328125 C 543.90625 488.328125 548.394531 486.324219 548.386719 483.871094 C 548.378906 481.433594 543.890625 479.460938 538.359375 479.464844 C 532.820312 479.488281 528.324219 481.476562 528.339844 483.921875 " fill-opacity="1" fill-rule="nonzero"/><path fill="#4277c4" d="M 580.546875 483.535156 C 580.5625 485.980469 585.039062 487.960938 590.582031 487.945312 C 596.121094 487.929688 600.609375 485.941406 600.597656 483.496094 C 600.597656 481.050781 596.097656 479.078125 590.570312 479.089844 C 585.019531 479.089844 580.539062 481.089844 580.546875 483.535156 " fill-opacity="1" fill-rule="nonzero"/><path fill="#172345" d="M 580.316406 470.058594 C 579.769531 472.09375 580.972656 474.179688 583 474.722656 C 585.035156 475.269531 587.121094 474.066406 587.667969 472.039062 C 588.203125 470.007812 587.007812 467.921875 584.972656 467.375 C 582.953125 466.828125 580.859375 468.03125 580.316406 470.058594 " fill-opacity="1" fill-rule="nonzero"/><path fill="#172345" d="M 531.320312 470.058594 C 530.773438 472.09375 531.980469 474.179688 534.007812 474.722656 C 536.039062 475.269531 538.125 474.066406 538.671875 472.039062 C 539.21875 470.007812 538.011719 467.921875 535.980469 467.375 C 533.957031 466.828125 531.855469 468.03125 531.320312 470.058594 " fill-opacity="1" fill-rule="nonzero"/><path fill="#1a1715" d="M 573.417969 460.417969 C 577.917969 457.832031 581.160156 454.210938 586.320312 452.648438 C 592.3125 450.832031 597.734375 452.53125 603.625 453.546875 C 603.785156 453.578125 604.714844 453.421875 604.300781 453.113281 C 599.5 449.464844 591.847656 449.328125 586.128906 450.179688 C 581.324219 450.910156 572.609375 454.5625 572.378906 460.210938 C 572.363281 460.597656 573.222656 460.53125 573.417969 460.417969 " fill-opacity="1" fill-rule="nonzero"/><path fill="#1a1715" d="M 550.066406 459.445312 C 550.300781 455.199219 543.1875 452.460938 539.84375 451.476562 C 535.710938 450.257812 529.339844 449.820312 525.488281 452.035156 C 525.007812 452.3125 525.652344 452.53125 525.917969 452.539062 C 529.960938 452.695312 533.542969 452.261719 537.546875 453.40625 C 541.9375 454.664062 544.933594 457.953125 549.03125 459.65625 C 549.253906 459.746094 550.042969 459.851562 550.066406 459.445312 " fill-opacity="1" fill-rule="nonzero"/><path fill="#ee1c72" d="M 561.859375 440.234375 L 555.808594 446.441406 L 561.859375 455.484375 L 567.90625 446.441406 L 561.859375 440.234375 " fill-opacity="1" fill-rule="nonzero"/><path fill="#f24daf" d="M 561.859375 444.394531 L 559.105469 447.214844 L 561.859375 451.328125 L 564.609375 447.214844 L 561.859375 444.394531 " fill-opacity="1" fill-rule="nonzero"/><path fill="#5292d5" d="M 568.382812 1286.117188 L 213.09375 1259.667969 C 213.09375 1259.667969 155.101562 1245.65625 206.859375 1179.683594 C 206.859375 1179.683594 279.511719 1132.902344 417.769531 1192.785156 L 568.570312 1252.863281 C 568.570312 1252.863281 579.222656 1280.988281 568.382812 1286.117188 " fill-opacity="1" fill-rule="nonzero"/><path fill="#5292d5" d="M 568.382812 1286.117188 C 568.382812 1286.117188 588.390625 1291.832031 612.910156 1305.15625 C 625.867188 1312.179688 653.933594 1325.378906 677.015625 1339.925781 C 678.722656 1341.007812 679.949219 1341.113281 681.527344 1339.824219 C 688.953125 1333.761719 674.613281 1318.785156 666.363281 1311.101562 C 656.96875 1302.351562 649.375 1294.957031 639.988281 1286.195312 C 630.4375 1277.261719 617.558594 1261.464844 607.832031 1253.050781 C 598.878906 1245.320312 586.449219 1242.109375 575.511719 1253.492188 L 568.570312 1252.863281 L 568.382812 1286.117188 " fill-opacity="1" fill-rule="nonzero"/><path fill="#172345" d="M 454.339844 1205.355469 C 390.511719 1173.089844 329.574219 1160.300781 284.214844 1160.292969 C 267.335938 1160.292969 252.609375 1162.066406 240.65625 1165.296875 L 241.140625 1167.097656 L 240.929688 1165.246094 C 240.824219 1165.261719 231.101562 1166.359375 220.160156 1170.949219 C 214.691406 1173.246094 208.910156 1176.425781 203.890625 1180.828125 C 198.871094 1185.226562 194.613281 1190.886719 192.320312 1198.042969 C 192.007812 1199.03125 192.546875 1200.078125 193.527344 1200.390625 C 194.511719 1200.703125 195.5625 1200.167969 195.875 1199.179688 C 197.933594 1192.761719 201.734375 1187.683594 206.351562 1183.632812 C 213.273438 1177.546875 222.050781 1173.835938 229.097656 1171.6875 C 232.617188 1170.621094 235.703125 1169.925781 237.894531 1169.507812 C 238.988281 1169.296875 239.867188 1169.164062 240.460938 1169.070312 C 241.054688 1168.984375 241.351562 1168.953125 241.351562 1168.953125 L 241.628906 1168.894531 C 253.167969 1165.773438 267.59375 1164.023438 284.214844 1164.03125 C 328.886719 1164.019531 389.335938 1176.664062 452.65625 1208.691406 C 453.574219 1209.15625 454.695312 1208.78125 455.164062 1207.859375 C 455.628906 1206.941406 455.261719 1205.820312 454.339844 1205.355469 " fill-opacity="1" fill-rule="nonzero"/><path fill="#172345" d="M 684.308594 882.195312 L 713.945312 751.234375 C 714.167969 750.222656 713.539062 749.230469 712.539062 748.996094 C 711.527344 748.773438 710.535156 749.402344 710.308594 750.410156 L 680.667969 881.371094 C 680.433594 882.382812 681.0625 883.378906 682.074219 883.609375 C 683.074219 883.832031 684.078125 883.203125 684.308594 882.195312 " fill-opacity="1" fill-rule="nonzero"/><path fill="#e4187d" d="M 683.621094 907.363281 C 697.300781 930.949219 724.632812 962.875 724.566406 979.617188 C 724.453125 1006.597656 655.308594 1029.480469 633.789062 1036.667969 C 625.921875 1039.285156 600.585938 1047.75 593.0625 1044.625 C 580.402344 1039.359375 578.4375 1017.90625 576.46875 1007.136719 C 573.058594 988.5 574.3125 980.011719 587.628906 970.628906 C 587.628906 970.628906 639.773438 928.265625 683.621094 907.363281 " fill-opacity="1" fill-rule="nonzero"/><path fill="#e4187d" d="M 555.113281 966.910156 C 570.742188 979.84375 572.75 979.058594 569.339844 997.691406 C 567.367188 1008.460938 567.769531 1037.933594 555.113281 1043.1875 C 547.59375 1046.3125 518.242188 1037.175781 510.371094 1034.542969 C 488.855469 1027.363281 458.347656 1025.613281 461.238281 998.785156 C 465.011719 963.691406 471.695312 928.835938 490.910156 909.503906 C 490.910156 909.503906 514.664062 933.441406 555.113281 966.910156 " fill-opacity="1" fill-rule="nonzero"/><path fill="#c41a50" d="M 543.234375 970.007812 C 541.960938 985.859375 538.789062 998.707031 535.75 1013.820312 C 532.265625 1031.136719 534.902344 1042.835938 552.585938 1049.050781 C 565.457031 1053.589844 582.871094 1054.832031 596.433594 1051.382812 C 618.628906 1045.730469 615.371094 1017.144531 612.066406 999.851562 C 610.21875 990.15625 612.523438 977.71875 609.246094 968.371094 C 604.644531 955.292969 584.644531 956.707031 573.425781 955.769531 C 560.640625 954.703125 544.621094 952.808594 543.234375 970.007812 " fill-opacity="1" fill-rule="nonzero"/><path fill="#172345" d="M 578.039062 470.808594 C 582.511719 465.242188 590.429688 472.175781 595.601562 473.214844 C 599.582031 474.003906 603.203125 471.328125 605.835938 468.710938 C 607.011719 467.554688 603.75 469.210938 603.300781 469.660156 C 598.671875 474.253906 590.347656 466.992188 585.273438 466.402344 C 581.160156 465.917969 577.464844 469.3125 575.113281 472.226562 C 574.667969 472.796875 577.546875 471.425781 578.039062 470.808594 " fill-opacity="1" fill-rule="nonzero"/><path fill="#172345" d="M 545.699219 470.238281 C 539.566406 462.597656 533.277344 468.445312 526 470.566406 C 525.238281 470.785156 522.878906 472.929688 523.574219 472.730469 C 530.542969 470.691406 536.722656 464.996094 542.59375 472.316406 C 543.054688 472.894531 546.050781 470.679688 545.699219 470.238281 " fill-opacity="1" fill-rule="nonzero"/><g clip-path="url(#id1)"><path fill="#1a1715" d="M 553.082031 347.332031 C 547.714844 350.195312 542.632812 355.066406 541.621094 361.722656 C 540.328125 370.199219 542.382812 383.378906 548.828125 388.933594 C 557.605469 396.484375 571.753906 391.3125 581.933594 391.910156 C 592.449219 392.527344 601.84375 392.050781 606.804688 380.800781 C 610.480469 372.425781 615.210938 358.179688 608.628906 350.203125 C 602.617188 342.925781 591.941406 343.046875 583.648438 343.023438 C 573.269531 343 562.714844 342.207031 553.082031 347.332031 " fill-opacity="1" fill-rule="nonzero"/></g><path fill="#ed1777" d="M 611.722656 388.375 C 614.585938 385.964844 617.0625 367.007812 615.53125 363.65625 C 566.5 350.226562 538.359375 368.03125 538.359375 368.03125 C 532.050781 372.203125 538.929688 389.023438 544.992188 392.785156 C 544.992188 392.785156 576.585938 399.164062 611.722656 388.375 " fill-opacity="1" fill-rule="nonzero"/><path fill="#f9ae0c" d="M 572.984375 369.714844 L 560.695312 382.335938 L 572.984375 400.71875 L 585.28125 382.335938 L 572.984375 369.714844 " fill-opacity="1" fill-rule="nonzero"/><path fill="#f24daf" d="M 572.988281 378.164062 L 567.398438 383.90625 L 572.988281 392.265625 L 578.589844 383.90625 L 572.988281 378.164062 " fill-opacity="1" fill-rule="nonzero"/><path fill="#f9ae0c" d="M 647.425781 407.519531 L 646.894531 407.722656 C 645.921875 408.085938 645.449219 409.164062 645.816406 410.128906 C 646.1875 411.089844 647.265625 411.574219 648.222656 411.203125 L 648.75 411.007812 C 649.707031 410.636719 650.199219 409.554688 649.828125 408.597656 C 649.457031 407.632812 648.390625 407.152344 647.425781 407.519531 " fill-opacity="1" fill-rule="nonzero"/><path fill="#f9ae0c" d="M 640.265625 410.058594 L 639.261719 410.375 C 638.277344 410.683594 637.722656 411.726562 638.035156 412.710938 C 638.351562 413.695312 639.394531 414.238281 640.371094 413.929688 C 640.71875 413.824219 641.0625 413.71875 641.410156 413.601562 C 642.382812 413.289062 642.921875 412.234375 642.613281 411.261719 C 642.292969 410.277344 641.242188 409.738281 640.265625 410.058594 Z M 632.519531 412.265625 C 632.175781 412.355469 631.835938 412.441406 631.496094 412.515625 C 630.5 412.757812 629.875 413.765625 630.109375 414.761719 C 630.351562 415.769531 631.359375 416.390625 632.359375 416.148438 C 632.707031 416.0625 633.0625 415.980469 633.410156 415.890625 C 634.417969 415.640625 635.03125 414.632812 634.777344 413.625 C 634.53125 412.628906 633.515625 412.023438 632.519531 412.265625 Z M 624.65625 413.890625 C 624.296875 413.953125 623.964844 414.007812 623.617188 414.058594 C 622.597656 414.210938 621.898438 415.15625 622.050781 416.175781 C 622.203125 417.199219 623.15625 417.894531 624.167969 417.742188 C 624.535156 417.691406 624.886719 417.636719 625.253906 417.574219 C 626.269531 417.410156 626.953125 416.449219 626.789062 415.433594 C 626.628906 414.414062 625.667969 413.726562 624.65625 413.890625 Z M 616.703125 414.808594 C 616.355469 414.820312 616.007812 414.84375 615.660156 414.859375 C 614.628906 414.914062 613.839844 415.792969 613.894531 416.820312 C 613.941406 417.847656 614.816406 418.640625 615.847656 418.589844 C 616.210938 418.566406 616.574219 418.550781 616.945312 418.527344 C 617.972656 418.460938 618.753906 417.574219 618.683594 416.546875 C 618.617188 415.519531 617.730469 414.738281 616.703125 414.808594 Z M 608.742188 414.859375 C 608.394531 414.839844 608.042969 414.816406 607.710938 414.792969 C 606.683594 414.726562 605.792969 415.496094 605.714844 416.523438 C 605.644531 417.550781 606.417969 418.445312 607.449219 418.511719 C 607.808594 418.546875 608.171875 418.566406 608.539062 418.582031 C 609.574219 418.636719 610.453125 417.847656 610.503906 416.820312 C 610.558594 415.792969 609.769531 414.914062 608.742188 414.859375 Z M 600.878906 413.898438 C 600.546875 413.832031 600.203125 413.765625 599.871094 413.695312 C 598.867188 413.476562 597.875 414.121094 597.65625 415.125 C 597.445312 416.132812 598.082031 417.125 599.085938 417.34375 C 599.441406 417.417969 599.804688 417.496094 600.167969 417.5625 C 601.179688 417.757812 602.160156 417.101562 602.355469 416.085938 C 602.558594 415.082031 601.894531 414.097656 600.878906 413.898438 Z M 593.296875 411.789062 L 592.335938 411.417969 C 591.382812 411.042969 590.300781 411.519531 589.914062 412.46875 C 589.535156 413.429688 590.003906 414.511719 590.964844 414.890625 C 591.308594 415.027344 591.648438 415.15625 592.003906 415.28125 C 592.964844 415.648438 594.046875 415.148438 594.394531 414.179688 C 594.757812 413.21875 594.257812 412.144531 593.296875 411.789062 Z M 586.222656 408.429688 L 585.34375 407.902344 C 584.472656 407.347656 583.320312 407.613281 582.769531 408.492188 C 582.226562 409.363281 582.492188 410.511719 583.359375 411.054688 L 584.316406 411.636719 C 585.199219 412.160156 586.34375 411.871094 586.871094 410.984375 C 587.394531 410.101562 587.101562 408.953125 586.222656 408.429688 Z M 579.933594 403.816406 L 579.183594 403.121094 C 578.433594 402.410156 577.261719 402.4375 576.542969 403.179688 C 575.832031 403.929688 575.863281 405.109375 576.605469 405.820312 L 577.421875 406.578125 C 578.191406 407.273438 579.367188 407.210938 580.054688 406.445312 C 580.75 405.683594 580.691406 404.503906 579.933594 403.816406 " fill-opacity="1" fill-rule="nonzero"/><path fill="#f9ae0c" d="M 574.859375 398.042969 L 574.574219 397.578125 C 574.035156 396.703125 572.890625 396.425781 572.007812 396.960938 C 571.132812 397.503906 570.859375 398.648438 571.394531 399.53125 L 571.671875 399.988281 C 572.210938 400.863281 573.363281 401.144531 574.238281 400.605469 C 575.121094 400.0625 575.398438 398.914062 574.859375 398.042969 " fill-opacity="1" fill-rule="nonzero"/><path fill="#f9ae0c" d="M 570.449219 394.859375 C 570.449219 394.882812 570.472656 395.085938 570.523438 395.46875 C 570.671875 396.484375 571.625 397.191406 572.640625 397.046875 C 573.65625 396.894531 574.371094 395.949219 574.21875 394.929688 L 574.175781 394.5625 L 574.160156 394.460938 C 574.046875 393.433594 573.128906 392.695312 572.101562 392.808594 C 571.078125 392.914062 570.335938 393.832031 570.449219 394.859375 " fill-opacity="1" fill-rule="nonzero"/><path fill="#f9ae0c" d="M 572.203125 403.140625 C 572.308594 403.503906 572.421875 403.882812 572.53125 404.265625 C 572.832031 405.25 573.871094 405.8125 574.859375 405.519531 C 575.84375 405.214844 576.40625 404.175781 576.109375 403.191406 C 575.996094 402.828125 575.890625 402.464844 575.792969 402.125 C 575.511719 401.128906 574.480469 400.554688 573.488281 400.835938 C 572.496094 401.117188 571.917969 402.148438 572.203125 403.140625 Z M 575.199219 411.632812 C 575.359375 411.988281 575.519531 412.34375 575.679688 412.710938 C 576.101562 413.648438 577.199219 414.066406 578.140625 413.648438 C 579.089844 413.222656 579.503906 412.125 579.089844 411.183594 C 578.929688 410.835938 578.777344 410.503906 578.632812 410.164062 C 578.230469 409.214844 577.140625 408.773438 576.191406 409.179688 C 575.238281 409.585938 574.800781 410.683594 575.199219 411.632812 Z M 579.300781 419.664062 L 579.914062 420.671875 C 580.457031 421.542969 581.613281 421.808594 582.488281 421.261719 C 583.363281 420.714844 583.625 419.554688 583.082031 418.6875 L 582.5 417.746094 C 581.964844 416.859375 580.824219 416.570312 579.9375 417.101562 C 579.054688 417.632812 578.769531 418.785156 579.300781 419.664062 Z M 584.523438 427.042969 L 585.292969 427.945312 C 585.96875 428.726562 587.152344 428.808594 587.925781 428.132812 C 588.703125 427.453125 588.789062 426.277344 588.113281 425.496094 L 587.394531 424.65625 C 586.734375 423.867188 585.550781 423.753906 584.765625 424.414062 C 583.976562 425.082031 583.863281 426.253906 584.523438 427.042969 Z M 590.886719 433.503906 L 591.804688 434.265625 C 592.597656 434.914062 593.773438 434.792969 594.429688 434 C 595.078125 433.203125 594.957031 432.019531 594.152344 431.378906 L 593.3125 430.664062 C 592.523438 430 591.347656 430.089844 590.691406 430.875 C 590.015625 431.660156 590.117188 432.832031 590.886719 433.503906 Z M 598.285156 438.769531 C 598.625 438.976562 598.964844 439.164062 599.3125 439.363281 C 600.210938 439.863281 601.347656 439.535156 601.847656 438.644531 C 602.347656 437.742188 602.027344 436.605469 601.125 436.105469 L 600.171875 435.558594 C 599.292969 435.035156 598.140625 435.332031 597.617188 436.21875 C 597.097656 437.113281 597.390625 438.25 598.277344 438.769531 Z M 606.460938 442.675781 C 606.824219 442.816406 607.207031 442.945312 607.578125 443.082031 C 608.546875 443.425781 609.613281 442.917969 609.953125 441.945312 C 610.296875 440.96875 609.789062 439.90625 608.820312 439.558594 C 608.472656 439.4375 608.121094 439.316406 607.78125 439.1875 C 606.816406 438.824219 605.734375 439.308594 605.375 440.273438 C 605.015625 441.234375 605.5 442.308594 606.460938 442.675781 Z M 615.148438 445.1875 C 615.523438 445.265625 615.917969 445.339844 616.296875 445.417969 C 617.316406 445.613281 618.292969 444.945312 618.480469 443.929688 C 618.671875 442.917969 618.011719 441.945312 616.996094 441.75 C 616.625 441.679688 616.269531 441.613281 615.914062 441.539062 C 614.894531 441.324219 613.910156 441.96875 613.699219 442.984375 C 613.492188 443.992188 614.140625 444.976562 615.148438 445.1875 Z M 624.058594 446.425781 C 624.453125 446.453125 624.839844 446.476562 625.226562 446.5 C 626.265625 446.558594 627.144531 445.773438 627.203125 444.742188 C 627.257812 443.71875 626.46875 442.832031 625.4375 442.773438 C 625.074219 442.75 624.695312 442.726562 624.332031 442.703125 C 623.308594 442.628906 622.40625 443.402344 622.335938 444.421875 C 622.261719 445.453125 623.027344 446.347656 624.058594 446.425781 Z M 633.023438 446.566406 C 633.410156 446.554688 633.804688 446.53125 634.191406 446.515625 C 635.222656 446.460938 636.007812 445.582031 635.964844 444.550781 C 635.914062 443.53125 635.023438 442.734375 634 442.789062 C 633.628906 442.800781 633.25 442.824219 632.878906 442.839844 C 631.855469 442.878906 631.046875 443.742188 631.089844 444.769531 C 631.128906 445.800781 632 446.605469 633.023438 446.566406 Z M 641.929688 445.800781 C 642.308594 445.757812 642.695312 445.703125 643.082031 445.652344 C 644.101562 445.507812 644.800781 444.5625 644.671875 443.542969 C 644.519531 442.523438 643.574219 441.808594 642.550781 441.953125 C 642.1875 442.007812 641.816406 442.0625 641.445312 442.105469 C 640.429688 442.242188 639.703125 443.171875 639.835938 444.195312 C 639.972656 445.21875 640.90625 445.941406 641.921875 445.800781 Z M 650.707031 444.308594 C 651.078125 444.234375 651.464844 444.152344 651.84375 444.066406 C 652.84375 443.847656 653.488281 442.855469 653.265625 441.847656 C 653.046875 440.839844 652.054688 440.203125 651.054688 440.425781 C 650.675781 440.507812 650.3125 440.582031 649.941406 440.660156 C 648.933594 440.863281 648.285156 441.855469 648.492188 442.863281 C 648.710938 443.871094 649.699219 444.523438 650.707031 444.308594 " fill-opacity="1" fill-rule="nonzero"/><path fill="#f9ae0c" d="M 659.445312 442.179688 L 659.984375 442.03125 C 660.96875 441.753906 661.554688 440.722656 661.277344 439.734375 C 661 438.738281 659.96875 438.164062 658.980469 438.441406 L 658.433594 438.589844 C 657.445312 438.867188 656.867188 439.894531 657.140625 440.886719 C 657.417969 441.882812 658.441406 442.464844 659.445312 442.179688 " fill-opacity="1" fill-rule="nonzero"/><path fill="#f9ae0c" d="M 522.015625 418.03125 L 522.554688 418.1875 C 523.539062 418.480469 524.582031 417.921875 524.875 416.929688 C 525.171875 415.949219 524.609375 414.910156 523.621094 414.617188 L 523.082031 414.449219 C 522.089844 414.160156 521.050781 414.71875 520.757812 415.710938 C 520.46875 416.699219 521.03125 417.734375 522.015625 418.03125 " fill-opacity="1" fill-rule="nonzero"/><path fill="#f9ae0c" d="M 529.925781 419.996094 C 530.300781 420.074219 530.675781 420.140625 531.046875 420.203125 C 532.0625 420.382812 533.027344 419.710938 533.210938 418.699219 C 533.390625 417.683594 532.710938 416.707031 531.699219 416.535156 C 531.347656 416.46875 530.996094 416.40625 530.636719 416.332031 C 529.625 416.136719 528.644531 416.800781 528.449219 417.8125 C 528.253906 418.816406 528.914062 419.800781 529.925781 419.996094 Z M 538.625 421.09375 C 539.011719 421.117188 539.398438 421.132812 539.777344 421.144531 C 540.804688 421.175781 541.667969 420.367188 541.699219 419.339844 C 541.734375 418.3125 540.921875 417.449219 539.894531 417.414062 C 539.542969 417.402344 539.183594 417.390625 538.824219 417.367188 C 537.792969 417.3125 536.917969 418.109375 536.863281 419.136719 C 536.808594 420.164062 537.597656 421.039062 538.625 421.09375 Z M 547.472656 420.773438 C 547.855469 420.722656 548.242188 420.664062 548.621094 420.601562 C 549.640625 420.4375 550.324219 419.476562 550.160156 418.464844 C 549.992188 417.441406 549.035156 416.753906 548.015625 416.921875 C 547.675781 416.972656 547.324219 417.027344 546.972656 417.078125 C 545.953125 417.214844 545.234375 418.15625 545.375 419.171875 C 545.511719 420.191406 546.449219 420.910156 547.472656 420.773438 Z M 556.132812 418.558594 C 556.503906 418.417969 556.863281 418.265625 557.222656 418.117188 C 558.164062 417.707031 558.597656 416.601562 558.1875 415.660156 C 557.777344 414.714844 556.679688 414.285156 555.734375 414.691406 L 554.765625 415.09375 C 553.808594 415.46875 553.339844 416.550781 553.714844 417.511719 C 554.09375 418.46875 555.171875 418.941406 556.132812 418.558594 Z M 563.980469 414.140625 L 564.90625 413.40625 C 565.699219 412.75 565.8125 411.570312 565.152344 410.785156 C 564.492188 409.988281 563.316406 409.875 562.523438 410.535156 L 561.710938 411.183594 C 560.890625 411.8125 560.734375 412.984375 561.363281 413.800781 C 561.992188 414.617188 563.164062 414.773438 563.984375 414.140625 Z M 570.285156 407.699219 L 570.964844 406.742188 C 571.546875 405.886719 571.332031 404.722656 570.476562 404.148438 C 569.625 403.566406 568.457031 403.785156 567.882812 404.632812 L 567.277344 405.484375 C 566.671875 406.316406 566.84375 407.488281 567.671875 408.09375 C 568.503906 408.703125 569.675781 408.53125 570.285156 407.699219 " fill-opacity="1" fill-rule="nonzero"/><path fill="#f9ae0c" d="M 574.601562 399.628906 L 574.765625 399.113281 C 575.078125 398.132812 574.535156 397.085938 573.550781 396.773438 C 572.5625 396.460938 571.519531 397.007812 571.210938 397.988281 L 571.046875 398.503906 C 570.730469 399.484375 571.277344 400.535156 572.257812 400.847656 C 573.238281 401.15625 574.292969 400.609375 574.601562 399.628906 " fill-opacity="1" fill-rule="nonzero"/><path fill="#f9ae0c" d="M 571.121094 398.679688 L 571.128906 398.769531 L 571.144531 399.125 C 571.164062 400.160156 572.011719 400.972656 573.042969 400.957031 C 574.074219 400.933594 574.898438 400.085938 574.871094 399.058594 C 574.859375 398.671875 574.855469 398.453125 574.847656 398.429688 C 574.777344 397.394531 573.886719 396.617188 572.863281 396.6875 C 571.832031 396.753906 571.054688 397.644531 571.128906 398.679688 L 571.121094 398.679688 " fill-opacity="1" fill-rule="nonzero"/><path fill="#f9ae0c" d="M 570.394531 406.257812 C 570.328125 406.605469 570.242188 406.957031 570.164062 407.320312 C 569.921875 408.320312 570.546875 409.328125 571.550781 409.570312 C 572.546875 409.804688 573.550781 409.1875 573.792969 408.191406 C 573.890625 407.789062 573.976562 407.40625 574.046875 407.019531 C 574.261719 406.003906 573.609375 405.023438 572.597656 404.8125 C 571.601562 404.601562 570.613281 405.25 570.402344 406.257812 Z M 567.808594 414.15625 L 567.335938 415.128906 C 566.878906 416.058594 567.253906 417.175781 568.171875 417.636719 C 569.101562 418.089844 570.222656 417.71875 570.679688 416.800781 C 570.859375 416.4375 571.03125 416.074219 571.195312 415.71875 C 571.625 414.785156 571.21875 413.671875 570.28125 413.242188 C 569.339844 412.8125 568.234375 413.21875 567.808594 414.15625 Z M 563.480469 421.222656 L 562.796875 422.0625 C 562.132812 422.855469 562.234375 424.03125 563.023438 424.6875 C 563.8125 425.355469 564.988281 425.25 565.652344 424.464844 L 566.40625 423.535156 C 567.042969 422.726562 566.910156 421.554688 566.101562 420.914062 C 565.292969 420.28125 564.121094 420.414062 563.480469 421.222656 Z M 557.617188 427.097656 L 556.757812 427.765625 C 555.9375 428.382812 555.773438 429.550781 556.390625 430.375 C 557.015625 431.199219 558.183594 431.367188 559.003906 430.746094 L 559.949219 430.015625 C 560.75 429.371094 560.886719 428.199219 560.242188 427.394531 C 559.597656 426.585938 558.425781 426.457031 557.617188 427.097656 Z M 550.589844 431.605469 L 549.605469 432.097656 C 548.679688 432.542969 548.285156 433.664062 548.738281 434.589844 C 549.1875 435.519531 550.300781 435.902344 551.230469 435.457031 C 551.585938 435.285156 551.941406 435.101562 552.289062 434.929688 C 553.207031 434.460938 553.570312 433.335938 553.097656 432.425781 C 552.628906 431.5 551.507812 431.136719 550.589844 431.605469 Z M 542.789062 434.808594 C 542.441406 434.921875 542.089844 435.03125 541.734375 435.132812 C 540.746094 435.4375 540.1875 436.46875 540.484375 437.460938 C 540.78125 438.449219 541.824219 439.007812 542.808594 438.707031 C 543.1875 438.59375 543.5625 438.480469 543.933594 438.359375 C 544.910156 438.042969 545.449219 436.992188 545.136719 436.011719 C 544.816406 435.03125 543.765625 434.492188 542.789062 434.808594 Z M 534.542969 436.871094 C 534.183594 436.941406 533.8125 437 533.445312 437.070312 C 532.429688 437.242188 531.746094 438.199219 531.921875 439.21875 C 532.09375 440.230469 533.058594 440.917969 534.074219 440.746094 C 534.464844 440.675781 534.84375 440.609375 535.226562 440.542969 C 536.238281 440.347656 536.90625 439.378906 536.71875 438.359375 C 536.527344 437.347656 535.554688 436.683594 534.542969 436.871094 Z M 526.0625 437.996094 C 525.691406 438.027344 525.316406 438.054688 524.945312 438.089844 C 523.914062 438.160156 523.148438 439.050781 523.21875 440.082031 C 523.296875 441.109375 524.191406 441.875 525.21875 441.804688 C 525.605469 441.78125 525.996094 441.75 526.375 441.710938 C 527.402344 441.628906 528.164062 440.722656 528.078125 439.695312 C 527.992188 438.667969 527.089844 437.90625 526.0625 437.996094 " fill-opacity="1" fill-rule="nonzero"/><path fill="#f9ae0c" d="M 517.371094 438.367188 L 516.808594 438.375 C 515.777344 438.375 514.945312 439.210938 514.949219 440.242188 C 514.949219 441.269531 515.789062 442.105469 516.820312 442.097656 L 517.382812 442.097656 C 518.414062 442.097656 519.246094 441.253906 519.242188 440.230469 C 519.238281 439.199219 518.402344 438.367188 517.371094 438.367188 " fill-opacity="1" fill-rule="nonzero"/><path fill="#ffffff" d="M 541.222656 610.765625 C 540.050781 610.765625 538.898438 610.210938 538.171875 609.1875 C 537.585938 608.351562 537.074219 607.632812 537.074219 606.429688 C 537.074219 604.363281 538.75 602.695312 540.808594 602.695312 C 542.8125 602.695312 543.773438 604.132812 544.140625 604.679688 L 544.273438 604.878906 C 545.457031 606.5625 545.058594 608.886719 543.375 610.078125 C 542.71875 610.539062 541.964844 610.765625 541.222656 610.765625 Z M 631.230469 613.089844 C 630.445312 613.089844 629.652344 612.84375 628.980469 612.328125 C 627.335938 611.085938 627.011719 608.746094 628.261719 607.101562 L 628.910156 606.230469 C 630.144531 604.585938 632.480469 604.238281 634.132812 605.46875 C 635.789062 606.707031 636.128906 609.046875 634.894531 610.699219 L 634.207031 611.609375 C 633.46875 612.582031 632.351562 613.089844 631.230469 613.089844 Z M 549.167969 620.195312 C 548.183594 620.195312 547.207031 619.804688 546.476562 619.042969 L 545.679688 618.21875 C 544.261719 616.714844 544.328125 614.363281 545.828125 612.941406 C 547.324219 611.527344 549.6875 611.59375 551.101562 613.089844 L 551.855469 613.875 C 553.285156 615.363281 553.234375 617.726562 551.75 619.15625 C 551.027344 619.851562 550.09375 620.195312 549.167969 620.195312 Z M 623.257812 622.460938 C 622.328125 622.460938 621.394531 622.109375 620.667969 621.414062 C 619.1875 619.980469 619.144531 617.617188 620.578125 616.132812 L 621.3125 615.363281 C 622.726562 613.851562 625.097656 613.785156 626.59375 615.199219 C 628.089844 616.613281 628.164062 618.96875 626.75 620.472656 L 625.949219 621.316406 C 625.210938 622.078125 624.238281 622.460938 623.257812 622.460938 Z M 558.347656 628.40625 C 557.558594 628.40625 556.757812 628.152344 556.078125 627.636719 L 555.160156 626.917969 C 553.535156 625.644531 553.257812 623.296875 554.53125 621.675781 C 555.8125 620.0625 558.164062 619.78125 559.773438 621.054688 L 560.621094 621.714844 C 562.257812 622.96875 562.566406 625.308594 561.3125 626.941406 C 560.574219 627.898438 559.46875 628.40625 558.347656 628.40625 Z M 614.042969 630.589844 C 612.898438 630.589844 611.761719 630.066406 611.027344 629.0625 C 609.816406 627.402344 610.175781 625.070312 611.84375 623.851562 L 612.679688 623.222656 C 614.3125 621.972656 616.660156 622.289062 617.910156 623.933594 C 619.160156 625.5625 618.84375 627.914062 617.199219 629.160156 L 616.25 629.871094 C 615.582031 630.359375 614.8125 630.589844 614.042969 630.589844 Z M 568.757812 634.949219 C 568.203125 634.949219 567.644531 634.828125 567.113281 634.566406 L 566.050781 634.027344 C 564.214844 633.078125 563.503906 630.820312 564.449219 628.996094 C 565.398438 627.171875 567.65625 626.453125 569.488281 627.402344 L 570.425781 627.875 C 572.265625 628.792969 573.023438 631.03125 572.109375 632.878906 C 571.460938 634.191406 570.132812 634.949219 568.757812 634.949219 Z M 603.390625 636.699219 C 601.921875 636.699219 600.53125 635.832031 599.933594 634.386719 C 599.148438 632.488281 600.046875 630.304688 601.953125 629.511719 L 602.894531 629.117188 C 604.765625 628.277344 606.980469 629.117188 607.820312 631 C 608.65625 632.878906 607.820312 635.082031 605.933594 635.929688 L 604.820312 636.40625 C 604.347656 636.601562 603.859375 636.699219 603.390625 636.699219 Z M 580.359375 639 L 579.613281 638.929688 L 578.421875 638.664062 C 576.410156 638.210938 575.160156 636.207031 575.625 634.191406 C 576.085938 632.1875 578.101562 630.933594 580.097656 631.398438 L 581.097656 631.613281 C 583.121094 632.027344 584.421875 634 584.019531 636.019531 C 583.648438 637.78125 582.09375 639 580.359375 639 Z M 591.488281 639.660156 C 589.574219 639.660156 587.945312 638.195312 587.773438 636.257812 C 587.589844 634.203125 589.105469 632.390625 591.160156 632.210938 L 592.183594 632.105469 C 594.203125 631.882812 596.074219 633.347656 596.308594 635.394531 C 596.546875 637.445312 595.066406 639.292969 593.023438 639.519531 L 591.820312 639.644531 L 591.488281 639.660156 " fill-opacity="1" fill-rule="nonzero"/><path fill="#ffffff" d="M 520.253906 618.167969 L 520.238281 618.167969 C 518.175781 618.152344 516.511719 616.480469 516.523438 614.414062 C 516.527344 613.574219 516.550781 613.121094 516.550781 613.121094 C 516.660156 611.074219 518.335938 609.496094 520.464844 609.597656 C 522.519531 609.695312 524.101562 611.445312 524.003906 613.492188 C 524 613.539062 523.992188 613.875 523.984375 614.453125 C 523.976562 616.507812 522.304688 618.167969 520.253906 618.167969 Z M 651.984375 620.007812 C 649.9375 620.007812 648.285156 618.363281 648.253906 616.3125 L 648.238281 615.253906 C 648.195312 613.1875 649.816406 611.476562 651.875 611.433594 C 653.894531 611.257812 655.652344 613 655.695312 615.066406 L 655.71875 616.238281 C 655.742188 618.296875 654.082031 619.984375 652.023438 620.007812 Z M 521.449219 630.433594 C 519.691406 630.433594 518.125 629.191406 517.785156 627.402344 L 517.570312 626.230469 C 517.230469 624.195312 518.589844 622.265625 520.625 621.921875 C 522.667969 621.578125 524.585938 622.9375 524.933594 624.972656 L 525.117188 625.996094 C 525.5 628.023438 524.175781 629.976562 522.152344 630.363281 Z M 651.300781 632.269531 L 650.789062 632.242188 C 648.75 631.964844 647.320312 630.089844 647.597656 628.046875 L 647.722656 626.992188 C 647.960938 624.949219 649.839844 623.476562 651.867188 623.722656 C 653.917969 623.964844 655.375 625.816406 655.136719 627.867188 L 654.996094 629.035156 C 654.742188 630.910156 653.132812 632.269531 651.300781 632.269531 Z M 524.746094 642.300781 C 523.238281 642.300781 521.816406 641.378906 521.253906 639.882812 L 520.84375 638.761719 C 520.160156 636.820312 521.171875 634.6875 523.117188 633.992188 C 525.058594 633.304688 527.191406 634.320312 527.878906 636.265625 L 528.242188 637.25 C 528.964844 639.183594 527.992188 641.335938 526.0625 642.054688 C 525.628906 642.21875 525.1875 642.300781 524.746094 642.300781 Z M 648.644531 644.257812 C 648.269531 644.257812 647.890625 644.199219 647.507812 644.070312 C 645.539062 643.445312 644.460938 641.347656 645.089844 639.382812 L 645.410156 638.367188 C 646.003906 636.390625 648.082031 635.285156 650.066406 635.882812 C 652.03125 636.488281 653.144531 638.574219 652.542969 640.542969 L 652.195312 641.65625 C 651.6875 643.242188 650.222656 644.257812 648.644531 644.257812 Z M 530.125 653.351562 C 528.875 653.351562 527.652344 652.722656 526.945312 651.578125 L 526.324219 650.546875 C 525.28125 648.769531 525.882812 646.488281 527.664062 645.4375 C 529.445312 644.40625 531.734375 644.996094 532.769531 646.78125 L 533.300781 647.660156 C 534.378906 649.417969 533.835938 651.714844 532.085938 652.796875 C 531.472656 653.171875 530.792969 653.351562 530.125 653.351562 Z M 643.671875 655.46875 C 643.042969 655.46875 642.398438 655.304688 641.804688 654.96875 C 640.019531 653.929688 639.414062 651.644531 640.445312 649.867188 L 640.96875 648.949219 C 641.964844 647.152344 644.246094 646.503906 646.039062 647.503906 C 647.84375 648.507812 648.496094 650.773438 647.492188 652.574219 L 646.90625 653.605469 C 646.222656 654.804688 644.964844 655.46875 643.671875 655.46875 Z M 537.566406 663.132812 C 536.566406 663.132812 535.566406 662.738281 534.832031 661.941406 L 534.039062 661.085938 C 532.65625 659.558594 532.769531 657.195312 534.300781 655.8125 C 535.820312 654.429688 538.183594 654.542969 539.570312 656.066406 L 540.292969 656.851562 C 541.699219 658.363281 541.617188 660.726562 540.109375 662.128906 C 539.390625 662.796875 538.476562 663.132812 537.566406 663.132812 Z M 636.316406 665.277344 C 635.390625 665.277344 634.460938 664.933594 633.734375 664.246094 C 632.25 662.824219 632.1875 660.460938 633.609375 658.976562 L 634.320312 658.214844 C 635.710938 656.695312 638.066406 656.582031 639.59375 657.972656 C 641.121094 659.363281 641.226562 661.726562 639.832031 663.246094 L 639.015625 664.121094 C 638.277344 664.890625 637.289062 665.277344 636.316406 665.277344 Z M 546.828125 671.179688 C 546.09375 671.179688 545.351562 670.964844 544.699219 670.515625 L 543.722656 669.808594 C 542.058594 668.589844 541.699219 666.257812 542.914062 664.597656 C 544.128906 662.929688 546.464844 662.570312 548.125 663.792969 L 548.96875 664.398438 C 550.660156 665.570312 551.074219 667.894531 549.894531 669.585938 C 549.167969 670.628906 548.007812 671.179688 546.828125 671.179688 Z M 626.898438 673.167969 C 625.695312 673.167969 624.507812 672.585938 623.785156 671.5 C 622.652344 669.789062 623.121094 667.46875 624.835938 666.332031 L 625.695312 665.75 C 627.386719 664.570312 629.710938 664.980469 630.878906 666.667969 C 632.0625 668.359375 631.65625 670.6875 629.96875 671.867188 L 628.964844 672.542969 C 628.328125 672.96875 627.609375 673.167969 626.898438 673.167969 Z M 557.476562 677.304688 C 556.949219 677.304688 556.410156 677.191406 555.902344 676.960938 L 554.847656 676.457031 C 552.992188 675.570312 552.210938 673.339844 553.105469 671.476562 C 554 669.621094 556.226562 668.855469 558.085938 669.738281 L 559.050781 670.191406 C 560.921875 671.058594 561.734375 673.28125 560.863281 675.148438 C 560.230469 676.503906 558.882812 677.304688 557.476562 677.304688 Z M 616.054688 678.980469 C 614.59375 678.980469 613.210938 678.121094 612.613281 676.691406 C 611.820312 674.789062 612.710938 672.609375 614.609375 671.808594 L 615.558594 671.394531 C 617.4375 670.566406 619.652344 671.394531 620.488281 673.28125 C 621.335938 675.160156 620.488281 677.363281 618.613281 678.207031 L 617.496094 678.6875 C 617.027344 678.882812 616.53125 678.980469 616.054688 678.980469 Z M 569.003906 681.558594 L 567.996094 681.417969 L 566.859375 681.078125 C 564.882812 680.484375 563.765625 678.402344 564.367188 676.429688 C 564.957031 674.453125 567.042969 673.339844 569.011719 673.941406 L 570.023438 674.238281 C 572.003906 674.800781 573.164062 676.855469 572.601562 678.835938 C 572.132812 680.484375 570.636719 681.558594 569.003906 681.558594 Z M 604.347656 682.828125 C 602.664062 682.828125 601.144531 681.6875 600.726562 679.980469 C 600.238281 677.976562 601.46875 675.964844 603.464844 675.472656 L 604.503906 675.210938 C 606.515625 674.695312 608.535156 675.898438 609.050781 677.886719 C 609.570312 679.882812 608.371094 681.917969 606.375 682.433594 L 605.234375 682.726562 Z M 581.027344 684.160156 L 580.441406 684.117188 L 579.304688 683.9375 C 577.277344 683.601562 575.894531 681.6875 576.230469 679.652344 C 576.566406 677.617188 578.460938 676.25 580.515625 676.570312 L 581.59375 676.75 C 583.636719 677.066406 585.027344 678.980469 584.703125 681.011719 C 584.410156 682.851562 582.835938 684.160156 581.027344 684.160156 Z M 592.179688 684.855469 C 590.261719 684.855469 588.640625 683.398438 588.46875 681.453125 C 588.289062 679.40625 589.804688 677.589844 591.855469 677.40625 L 592.917969 677.3125 C 594.96875 677.058594 596.800781 678.589844 597.007812 680.636719 C 597.21875 682.695312 595.730469 684.519531 593.679688 684.730469 L 592.503906 684.839844 L 592.179688 684.855469 " fill-opacity="1" fill-rule="nonzero"/><path fill="#f9ae0c" d="M 553.972656 580.375 C 553.972656 580.375 579.617188 593.894531 618.464844 578.976562 L 628.074219 599.789062 C 628.074219 599.789062 587.449219 620.539062 546.355469 598.910156 L 553.972656 580.375 " fill-opacity="1" fill-rule="nonzero"/><path fill="#f9ae0c" d="M 645.628906 526.136719 L 643.429688 526.136719 L 643.429688 501.480469 L 645.628906 501.480469 L 645.628906 526.136719 " fill-opacity="1" fill-rule="nonzero"/><path fill="#f9ae0c" d="M 656.054688 527.625 C 656.054688 534.09375 650.820312 539.328125 644.355469 539.328125 C 637.894531 539.328125 632.652344 534.09375 632.652344 527.625 C 632.652344 521.164062 637.894531 515.929688 644.355469 515.929688 C 650.820312 515.929688 656.054688 521.164062 656.054688 527.625 " fill-opacity="1" fill-rule="nonzero"/><path fill="#f47216" d="M 650.214844 527.625 C 650.214844 530.863281 647.582031 533.480469 644.355469 533.480469 C 641.121094 533.480469 638.5 530.863281 638.5 527.625 C 638.5 524.394531 641.121094 521.777344 644.355469 521.777344 C 647.582031 521.777344 650.214844 524.394531 650.214844 527.625 " fill-opacity="1" fill-rule="nonzero"/><path fill="#f03e1e" d="M 646.476562 539.328125 C 646.476562 540.5 645.527344 541.449219 644.355469 541.449219 C 643.183594 541.449219 642.234375 540.5 642.234375 539.328125 C 642.234375 538.160156 643.183594 537.210938 644.355469 537.210938 C 645.527344 537.210938 646.476562 538.160156 646.476562 539.328125 " fill-opacity="1" fill-rule="nonzero"/><path fill="#f03e1e" d="M 646.476562 515.929688 C 646.476562 517.09375 645.527344 518.039062 644.355469 518.039062 C 643.183594 518.039062 642.234375 517.09375 642.234375 515.929688 C 642.234375 514.753906 643.183594 513.804688 644.355469 513.804688 C 645.527344 513.804688 646.476562 514.753906 646.476562 515.929688 " fill-opacity="1" fill-rule="nonzero"/><path fill="#f03e1e" d="M 642.417969 539.367188 C 642.023438 540.464844 640.8125 541.035156 639.71875 540.644531 C 638.613281 540.253906 638.035156 539.042969 638.433594 537.9375 C 638.824219 536.839844 640.035156 536.261719 641.132812 536.65625 C 642.242188 537.054688 642.808594 538.257812 642.417969 539.367188 " fill-opacity="1" fill-rule="nonzero"/><path fill="#f03e1e" d="M 650.28125 517.320312 C 649.886719 518.417969 648.679688 518.992188 647.574219 518.597656 C 646.476562 518.210938 645.898438 517 646.289062 515.890625 C 646.683594 514.792969 647.894531 514.21875 648.992188 514.613281 C 650.101562 515 650.675781 516.210938 650.28125 517.320312 " fill-opacity="1" fill-rule="nonzero"/><path fill="#f03e1e" d="M 638.59375 538.035156 C 637.851562 538.9375 636.511719 539.074219 635.613281 538.335938 C 634.710938 537.59375 634.566406 536.261719 635.3125 535.359375 C 636.046875 534.441406 637.378906 534.316406 638.292969 535.050781 C 639.195312 535.789062 639.332031 537.121094 638.59375 538.035156 " fill-opacity="1" fill-rule="nonzero"/><path fill="#f03e1e" d="M 653.394531 519.898438 C 652.660156 520.808594 651.328125 520.949219 650.421875 520.207031 C 649.511719 519.464844 649.375 518.132812 650.117188 517.230469 C 650.859375 516.316406 652.195312 516.183594 653.09375 516.921875 C 654 517.664062 654.140625 518.992188 653.394531 519.898438 " fill-opacity="1" fill-rule="nonzero"/><path fill="#f03e1e" d="M 635.433594 535.492188 C 634.429688 536.097656 633.132812 535.773438 632.53125 534.773438 C 631.917969 533.769531 632.238281 532.472656 633.242188 531.871094 C 634.246094 531.265625 635.546875 531.582031 636.152344 532.582031 C 636.757812 533.585938 636.4375 534.882812 635.433594 535.492188 " fill-opacity="1" fill-rule="nonzero"/><path fill="#f03e1e" d="M 655.472656 523.382812 C 654.464844 523.988281 653.167969 523.667969 652.554688 522.675781 C 651.957031 521.671875 652.277344 520.371094 653.273438 519.765625 C 654.277344 519.160156 655.585938 519.480469 656.183594 520.484375 C 656.789062 521.484375 656.46875 522.785156 655.472656 523.382812 " fill-opacity="1" fill-rule="nonzero"/><path fill="#f03e1e" d="M 633.308594 532.035156 C 632.160156 532.277344 631.035156 531.535156 630.820312 530.390625 C 630.582031 529.246094 631.3125 528.125 632.464844 527.894531 C 633.601562 527.65625 634.722656 528.402344 634.964844 529.546875 C 635.195312 530.691406 634.453125 531.804688 633.308594 532.035156 " fill-opacity="1" fill-rule="nonzero"/><path fill="#f03e1e" d="M 656.242188 527.363281 C 655.097656 527.601562 653.984375 526.855469 653.746094 525.710938 C 653.515625 524.566406 654.253906 523.449219 655.398438 523.21875 C 656.550781 522.980469 657.671875 523.71875 657.898438 524.863281 C 658.136719 526.011719 657.394531 527.132812 656.242188 527.363281 " fill-opacity="1" fill-rule="nonzero"/><path fill="#f03e1e" d="M 632.472656 528.074219 C 631.3125 527.910156 630.511719 526.839844 630.667969 525.679688 C 630.835938 524.527344 631.910156 523.714844 633.0625 523.886719 C 634.230469 524.050781 635.03125 525.117188 634.859375 526.277344 C 634.699219 527.4375 633.628906 528.238281 632.472656 528.074219 " fill-opacity="1" fill-rule="nonzero"/><path fill="#f03e1e" d="M 655.652344 531.371094 C 654.492188 531.207031 653.691406 530.136719 653.851562 528.976562 C 654.015625 527.816406 655.082031 527.019531 656.242188 527.183594 C 657.394531 527.347656 658.203125 528.417969 658.039062 529.578125 C 657.882812 530.738281 656.804688 531.542969 655.652344 531.371094 " fill-opacity="1" fill-rule="nonzero"/><path fill="#f03e1e" d="M 633.011719 524.066406 C 631.972656 523.511719 631.574219 522.234375 632.121094 521.203125 C 632.65625 520.167969 633.945312 519.765625 634.976562 520.3125 C 636.007812 520.855469 636.414062 522.136719 635.867188 523.171875 C 635.328125 524.207031 634.042969 524.601562 633.011719 524.066406 " fill-opacity="1" fill-rule="nonzero"/><path fill="#f03e1e" d="M 653.730469 534.945312 C 652.699219 534.398438 652.300781 533.121094 652.839844 532.089844 C 653.386719 531.050781 654.664062 530.652344 655.695312 531.199219 C 656.738281 531.738281 657.132812 533.023438 656.589844 534.054688 C 656.050781 535.09375 654.769531 535.492188 653.730469 534.945312 " fill-opacity="1" fill-rule="nonzero"/><path fill="#f03e1e" d="M 634.867188 520.460938 C 634.070312 519.601562 634.125 518.261719 634.992188 517.46875 C 635.84375 516.675781 637.183594 516.730469 637.984375 517.589844 C 638.777344 518.449219 638.71875 519.789062 637.859375 520.578125 C 636.996094 521.371094 635.660156 521.320312 634.867188 520.460938 " fill-opacity="1" fill-rule="nonzero"/><path fill="#f03e1e" d="M 650.738281 537.667969 C 649.9375 536.804688 649.992188 535.46875 650.847656 534.675781 C 651.710938 533.882812 653.050781 533.945312 653.851562 534.796875 C 654.640625 535.65625 654.582031 536.992188 653.722656 537.789062 C 652.863281 538.578125 651.515625 538.527344 650.738281 537.667969 " fill-opacity="1" fill-rule="nonzero"/><path fill="#f03e1e" d="M 637.828125 517.683594 C 637.371094 516.609375 637.863281 515.375 638.941406 514.914062 C 640.019531 514.453125 641.269531 514.957031 641.722656 516.027344 C 642.179688 517.105469 641.679688 518.351562 640.601562 518.804688 C 639.527344 519.265625 638.292969 518.761719 637.828125 517.683594 " fill-opacity="1" fill-rule="nonzero"/><path fill="#f03e1e" d="M 646.988281 539.230469 C 646.527344 538.148438 647.035156 536.90625 648.113281 536.445312 C 649.179688 535.984375 650.429688 536.492188 650.886719 537.5625 C 651.351562 538.648438 650.84375 539.886719 649.765625 540.34375 C 648.691406 540.800781 647.441406 540.300781 646.988281 539.230469 " fill-opacity="1" fill-rule="nonzero"/><path fill="#f9ae0c" d="M 647.492188 500.464844 C 647.492188 502.101562 646.167969 503.425781 644.53125 503.425781 C 642.894531 503.425781 641.566406 502.101562 641.566406 500.464844 C 641.566406 498.828125 642.894531 497.503906 644.53125 497.503906 C 646.167969 497.503906 647.492188 498.828125 647.492188 500.464844 " fill-opacity="1" fill-rule="nonzero"/><path fill="#4277c4" d="M 349.632812 612.566406 C 347.273438 609.5625 333.480469 612.023438 330.132812 612.476562 C 325.113281 613.164062 320.589844 613.875 315.960938 616.394531 C 309.605469 619.859375 308.050781 623.214844 311.441406 629.617188 C 313.191406 632.921875 316.9375 637.132812 321.207031 636.445312 C 325.054688 635.816406 325.542969 632.09375 327.300781 629.199219 C 331.710938 621.960938 351.175781 616.390625 349.632812 612.566406 " fill-opacity="1" fill-rule="nonzero"/><path fill="#5292d5" d="M 319.996094 643.445312 C 375.871094 716.953125 376.039062 715.605469 432.738281 804.847656 C 432.738281 804.847656 426.273438 833.257812 397.285156 852.164062 C 397.285156 852.164062 370.5625 827.261719 353.34375 782.933594 C 353.34375 782.933594 309.945312 675.972656 308.058594 651.820312 L 319.996094 643.445312 " fill-opacity="1" fill-rule="nonzero"/><path fill="#4277c4" d="M 315 588.734375 C 317.265625 593.386719 320.101562 610.839844 323.558594 619.648438 C 327.300781 629.199219 325.308594 637.433594 331.675781 654.726562 L 326.507812 654.191406 C 320.71875 649.238281 314.242188 641.8125 305.652344 641.28125 C 298.886719 640.878906 292.585938 643.886719 285.464844 643.109375 C 278.421875 642.328125 272.925781 637.945312 271.53125 631.0625 C 270.382812 625.390625 265.460938 611.339844 272.464844 608.453125 C 272.464844 608.453125 296.074219 586.769531 315 588.734375 " fill-opacity="1" fill-rule="nonzero"/><path fill="#5292d5" d="M 295.886719 638.6875 C 302.761719 637.605469 309.902344 635.222656 316.960938 636.796875 C 323.234375 638.195312 325.933594 642.054688 328.679688 647.585938 C 330.261719 650.773438 333.625 657.554688 331.722656 660.648438 C 330.632812 662.417969 327.046875 663.746094 325.097656 664.570312 C 322.886719 665.496094 320.234375 667.074219 317.886719 667.710938 C 313.242188 668.949219 309.199219 662.5 305.214844 660.292969 C 296.054688 655.222656 285.203125 656.894531 275.996094 651.820312 C 271.875 649.550781 270.445312 644.058594 268.960938 639.300781 C 268.332031 637.296875 263.628906 624.335938 270.316406 609.792969 C 271.824219 606.519531 275.058594 613.75 274.523438 618.324219 C 274.523438 618.324219 271.710938 646.15625 295.886719 638.6875 " fill-opacity="1" fill-rule="nonzero"/><path fill="#f9ae0c" d="M 308.167969 678.214844 C 308.167969 678.214844 326.648438 663.84375 341.089844 661.871094 C 341.089844 661.871094 352.828125 674.027344 356.089844 681.984375 C 356.089844 681.984375 343.8125 702.511719 319.988281 704.621094 C 319.988281 704.621094 308.488281 694.183594 308.167969 678.214844 " fill-opacity="1" fill-rule="nonzero"/><path fill="#f9ae0c" d="M 568.675781 519.414062 L 245.238281 656.960938 L 225.210938 646.121094 L 561.953125 503.621094 L 568.675781 519.414062 " fill-opacity="1" fill-rule="nonzero"/><path fill="#f68912" d="M 568.675781 519.414062 L 245.238281 656.960938 L 225.210938 646.121094 L 254.902344 645.417969 L 565.960938 513.019531 L 568.675781 519.414062 " fill-opacity="1" fill-rule="nonzero"/><path fill="#d36c10" d="M 302.433594 617.953125 C 301.332031 622.183594 296.988281 624.726562 292.742188 623.617188 C 290.511719 623.039062 288.742188 621.554688 287.761719 619.65625 L 302.300781 613.503906 C 302.753906 614.882812 302.835938 616.425781 302.433594 617.953125 " fill-opacity="1" fill-rule="nonzero"/><path fill="#d36c10" d="M 334.015625 604.019531 C 332.902344 608.273438 328.570312 610.808594 324.320312 609.695312 C 322.269531 609.164062 320.625 607.871094 319.59375 606.195312 L 334.019531 600.070312 C 334.339844 601.328125 334.367188 602.679688 334.015625 604.019531 " fill-opacity="1" fill-rule="nonzero"/><path fill="#d36c10" d="M 364.859375 591.230469 C 363.75 595.480469 359.414062 598.019531 355.164062 596.90625 C 353.023438 596.347656 351.320312 594.972656 350.296875 593.191406 L 364.804688 587.050781 C 365.191406 588.375 365.230469 589.8125 364.859375 591.230469 " fill-opacity="1" fill-rule="nonzero"/><path fill="#d36c10" d="M 397.972656 578.828125 C 396.867188 583.058594 392.523438 585.613281 388.277344 584.511719 C 385.625 583.8125 383.640625 581.839844 382.789062 579.441406 L 397.375 573.269531 C 398.230469 574.929688 398.480469 576.890625 397.972656 578.828125 " fill-opacity="1" fill-rule="nonzero"/><path fill="#d36c10" d="M 428.828125 564.269531 C 427.722656 568.507812 423.382812 571.054688 419.144531 569.949219 C 416.964844 569.382812 415.238281 567.960938 414.234375 566.136719 L 428.746094 559.988281 C 429.15625 561.335938 429.210938 562.800781 428.828125 564.269531 " fill-opacity="1" fill-rule="nonzero"/><path fill="#d36c10" d="M 461.195312 550.984375 C 460.09375 555.21875 455.757812 557.757812 451.515625 556.65625 C 449.207031 556.042969 447.390625 554.480469 446.425781 552.519531 L 461.015625 546.339844 C 461.519531 547.777344 461.613281 549.394531 461.195312 550.984375 " fill-opacity="1" fill-rule="nonzero"/><path fill="#d36c10" d="M 492.410156 538.234375 C 491.300781 542.476562 486.964844 545.019531 482.714844 543.90625 C 480.257812 543.269531 478.378906 541.542969 477.457031 539.378906 L 492.058594 533.203125 C 492.710938 534.742188 492.863281 536.5 492.410156 538.234375 " fill-opacity="1" fill-rule="nonzero"/><path fill="#d36c10" d="M 523.519531 523.921875 C 522.410156 528.171875 518.074219 530.714844 513.824219 529.597656 C 511.742188 529.058594 510.070312 527.726562 509.035156 526.023438 L 523.507812 519.898438 C 523.851562 521.179688 523.875 522.546875 523.519531 523.921875 " fill-opacity="1" fill-rule="nonzero"/><path fill="#fccb06" d="M 569.28125 521.410156 L 561.292969 502.148438 L 568.78125 499.042969 L 576.769531 518.308594 L 569.28125 521.410156 " fill-opacity="1" fill-rule="nonzero"/><path fill="#f79210" d="M 569.28125 521.410156 L 561.292969 502.148438 L 568.78125 499.042969 L 565.734375 502.714844 L 571.960938 518.191406 L 576.769531 518.308594 L 569.28125 521.410156 " fill-opacity="1" fill-rule="nonzero"/><path fill="#fbc707" d="M 270.804688 647.332031 L 263.113281 629.019531 L 267.566406 627.148438 L 275.257812 645.457031 L 270.804688 647.332031 " fill-opacity="1" fill-rule="nonzero"/><path fill="#fbc707" d="M 263.621094 650.21875 L 255.929688 631.90625 L 260.378906 630.035156 L 268.074219 648.347656 L 263.621094 650.21875 " fill-opacity="1" fill-rule="nonzero"/><path fill="#fbc707" d="M 554.566406 526.53125 L 546.871094 508.21875 L 551.320312 506.347656 L 559.019531 524.65625 L 554.566406 526.53125 " fill-opacity="1" fill-rule="nonzero"/><path fill="#fbc707" d="M 547.378906 529.417969 L 539.6875 511.105469 L 544.132812 509.238281 L 551.828125 527.550781 L 547.378906 529.417969 " fill-opacity="1" fill-rule="nonzero"/><path fill="#5292d5" d="M 313.425781 629.773438 C 309.441406 628.527344 307.324219 616.484375 306.125 613.203125 C 304.796875 609.566406 303.457031 599.722656 299.929688 598.113281 C 297.398438 599.734375 295.476562 603.300781 294.425781 606.136719 C 292.277344 603.878906 291.835938 600.394531 290.21875 597.601562 C 291.808594 592.75 296.320312 584.613281 302.050781 584.1875 C 309.4375 583.632812 311.664062 590.6875 312.625 596.28125 C 313.167969 599.429688 320.082031 631.84375 313.425781 629.773438 " fill-opacity="1" fill-rule="nonzero"/><path fill="#5292d5" d="M 321.734375 618.847656 C 318.453125 617.824219 316.707031 607.914062 315.722656 605.214844 C 314.632812 602.234375 313.53125 594.128906 310.628906 592.808594 C 308.546875 594.140625 306.964844 597.070312 306.097656 599.40625 C 304.332031 597.542969 303.972656 594.679688 302.640625 592.378906 C 303.945312 588.390625 307.65625 581.707031 312.371094 581.351562 C 318.449219 580.898438 320.277344 586.691406 321.070312 591.289062 C 321.515625 593.894531 327.203125 620.554688 321.734375 618.847656 " fill-opacity="1" fill-rule="nonzero"/><path fill="#5292d5" d="M 303.449219 634.992188 C 299.460938 633.746094 297.34375 621.695312 296.140625 618.421875 C 294.816406 614.789062 293.472656 604.9375 289.953125 603.332031 C 287.417969 604.960938 285.492188 608.511719 284.4375 611.355469 C 282.292969 609.097656 281.851562 605.605469 280.242188 602.8125 C 281.824219 597.972656 286.339844 589.828125 292.066406 589.40625 C 299.457031 588.855469 301.679688 595.898438 302.640625 601.492188 C 303.1875 604.648438 310.097656 637.058594 303.449219 634.992188 " fill-opacity="1" fill-rule="nonzero"/><path fill="#5292d5" d="M 291.03125 631.398438 C 287.042969 630.160156 284.925781 618.109375 283.730469 614.832031 C 282.398438 611.199219 283.554688 611.917969 280.03125 610.308594 C 277.5 611.929688 275.574219 615.492188 274.523438 618.324219 C 272.375 616.074219 271.933594 612.582031 270.316406 609.792969 C 271.90625 604.945312 276.414062 596.804688 282.144531 596.386719 C 289.539062 595.832031 291.765625 602.875 292.722656 608.46875 C 293.265625 611.625 297.683594 633.472656 291.03125 631.398438 " fill-opacity="1" fill-rule="nonzero"/><path fill="#5ba7e0" d="M 429.695312 591.792969 C 429.695312 591.792969 495.074219 664.742188 545.847656 744.316406 C 545.847656 744.316406 574.847656 815.117188 545.894531 834.089844 C 545.894531 834.089844 494.445312 806.574219 477.136719 762.292969 C 477.136719 762.292969 419.710938 624.347656 417.769531 600.183594 L 429.695312 591.792969 " fill-opacity="1" fill-rule="nonzero"/><path fill="#5ba7e0" d="M 543.273438 834.949219 C 543.273438 834.949219 521.652344 789.242188 550.949219 762.800781 C 550.949219 762.800781 563.550781 731.640625 622.996094 708.339844 C 622.996094 708.339844 650.164062 628.945312 713.179688 640.132812 C 713.179688 640.132812 743.960938 650.21875 743.960938 702.019531 C 743.960938 702.019531 742.488281 720.308594 724.3125 734.996094 C 724.3125 734.996094 682.371094 786.902344 625.777344 804.125 C 625.777344 804.125 566.777344 844.667969 543.273438 834.949219 " fill-opacity="1" fill-rule="nonzero"/><path fill="#f9ae0c" d="M 650.675781 794.074219 C 653.183594 792.683594 662.292969 787.742188 664.703125 786.265625 C 652.542969 776.261719 643.0625 765.269531 634.628906 751.597656 C 626.628906 738.644531 619.203125 725.980469 615.636719 711.382812 C 612.230469 712.847656 603.375 717.191406 600.308594 718.6875 C 612.132812 752.726562 624.410156 776.066406 650.675781 794.074219 " fill-opacity="1" fill-rule="nonzero"/><path fill="#f9ae0c" d="M 573.074219 736.636719 C 576.925781 767.347656 600.886719 793.847656 618.09375 809.125 C 619.042969 808.496094 625.777344 804.125 625.777344 804.125 C 629.832031 802.890625 633.78125 801.445312 637.675781 799.878906 C 626 791.777344 615.222656 778.675781 608.835938 767.46875 C 598.5 749.332031 595.171875 741.503906 590.546875 724.3125 C 586.703125 726.667969 583.222656 729.015625 580.042969 731.324219 L 573.074219 736.636719 " fill-opacity="1" fill-rule="nonzero"/><path fill="#172345" d="M 732.628906 723.734375 C 712.539062 748.5625 686.722656 777.582031 658.472656 787.441406 C 657.5 787.785156 656.992188 788.847656 657.328125 789.816406 C 657.671875 790.789062 658.734375 791.296875 659.707031 790.960938 C 689.367188 780.507812 715.304688 750.984375 735.53125 726.089844 C 736.183594 725.289062 736.054688 724.117188 735.253906 723.464844 C 734.453125 722.816406 733.28125 722.9375 732.628906 723.734375 " fill-opacity="1" fill-rule="nonzero"/><path fill="#5ba7e0" d="M 387.769531 596.347656 C 399.121094 591.058594 404.988281 607.019531 419.363281 608.351562 L 434.480469 595.734375 C 419.875 579 410.957031 530.128906 394.957031 547.644531 C 394.957031 547.644531 370.628906 565.515625 366.441406 586.355469 L 382.789062 579.023438 C 382.789062 579.023438 393.019531 586.304688 387.769531 596.347656 " fill-opacity="1" fill-rule="nonzero"/><path fill="#f9ae0c" d="M 465.011719 617.921875 L 450.503906 604.261719 C 450.503906 604.261719 426.933594 605.238281 416.824219 622.773438 L 421.9375 637.6875 C 421.9375 637.6875 447.769531 643.039062 465.011719 617.921875 " fill-opacity="1" fill-rule="nonzero"/><path fill="#172345" d="M 874.023438 1070.679688 C 884.824219 1080.359375 894.195312 1084.808594 903.957031 1087.808594 C 913.726562 1090.808594 923.824219 1092.429688 936.597656 1096.625 C 960.902344 1104.597656 983.171875 1113.234375 1011.378906 1120.898438 C 1012.371094 1121.167969 1013.398438 1120.585938 1013.664062 1119.589844 C 1013.933594 1118.59375 1013.351562 1117.574219 1012.355469 1117.300781 C 984.359375 1109.6875 962.195312 1101.097656 937.765625 1093.082031 C 924.699219 1088.796875 914.464844 1087.144531 905.058594 1084.242188 C 895.640625 1081.332031 886.972656 1077.234375 876.511719 1067.902344 C 875.742188 1067.207031 874.5625 1067.273438 873.871094 1068.046875 C 873.191406 1068.8125 873.253906 1069.988281 874.023438 1070.679688 " fill-opacity="1" fill-rule="nonzero"/><path fill="#172345" d="M 533.269531 1052.960938 C 533.402344 1055.847656 533.457031 1058.742188 533.453125 1061.636719 C 533.460938 1076.316406 532.015625 1091.109375 532.015625 1105.996094 C 532.015625 1117.003906 532.804688 1128.0625 535.597656 1139.144531 C 542.054688 1164.808594 553.550781 1186.789062 571.53125 1206.628906 C 612.910156 1252.246094 682.257812 1269.257812 764.636719 1269.261719 C 765.667969 1269.261719 766.5 1268.433594 766.5 1267.402344 C 766.5 1266.367188 765.667969 1265.53125 764.636719 1265.53125 C 682.699219 1265.546875 614.46875 1248.511719 574.292969 1204.121094 C 556.710938 1184.707031 545.554688 1163.375 539.214844 1138.234375 C 536.527344 1127.5625 535.746094 1116.824219 535.75 1105.996094 C 535.746094 1091.351562 537.1875 1076.5625 537.1875 1061.636719 C 537.1875 1058.691406 537.132812 1055.75 537 1052.796875 C 536.949219 1051.765625 536.078125 1050.972656 535.046875 1051.019531 C 534.019531 1051.070312 533.222656 1051.9375 533.269531 1052.960938 " fill-opacity="1" fill-rule="nonzero"/></svg>