<svg xmlns="http://www.w3.org/2000/svg" xmlns:xlink="http://www.w3.org/1999/xlink" width="1587" zoomAndPan="magnify" viewBox="0 0 1190.25 1683.749949" height="2245" preserveAspectRatio="xMidYMid meet" version="1.0"><defs><clipPath id="id1"><path d="M 127 674.082031 L 1064 674.082031 L 1064 1374.78125 L 127 1374.78125 Z M 127 674.082031 " clip-rule="nonzero"/></clipPath><clipPath id="id2"><path d="M 887.421875 1024 L 1079.363281 1024 L 1079.363281 1208 L 887.421875 1208 Z M 887.421875 1024 " clip-rule="nonzero"/></clipPath></defs><path fill="#e4e6e9" d="M 364.976562 593.921875 C 364.976562 593.921875 379.457031 622.886719 355.765625 630.777344 C 332.082031 638.679688 327.144531 667.3125 336.34375 687.054688 C 345.558594 706.789062 376.816406 704.484375 354.453125 750.550781 C 332.082031 796.628906 468.9375 808.472656 566.335938 808.472656 C 663.722656 808.472656 833.824219 738.386719 833.824219 738.386719 C 833.824219 738.386719 804.214844 720.609375 811.125 701.851562 C 817.035156 685.800781 837.441406 682.117188 834.808594 641.308594 C 832.179688 600.503906 787.433594 615.972656 808.15625 556.742188 C 821.699219 518.050781 364.976562 593.921875 364.976562 593.921875 " fill-opacity="1" fill-rule="nonzero"/><path fill="#f4ca9d" d="M 721.339844 405.445312 C 678.179688 379.269531 619.253906 362.238281 566.890625 362.597656 C 561.171875 363.515625 554.300781 364.023438 547.363281 363.582031 C 507.625 367.460938 456.15625 391.171875 439.113281 422.167969 C 434.035156 432.441406 437.808594 555.835938 443.851562 593.441406 C 445.617188 598.460938 447.417969 602.84375 449.210938 606.285156 C 466.199219 638.679688 534.808594 692.972656 551.554688 694.300781 C 565.703125 695.421875 577.320312 689.097656 580.582031 687.113281 C 583.753906 689.238281 595.070312 696.085938 609.253906 695.628906 C 626.046875 695.070312 697.03125 643.972656 715.4375 612.394531 C 715.851562 611.671875 716.277344 610.816406 716.691406 610.019531 C 716.285156 568.003906 737.878906 413.8125 721.339844 405.445312 " fill-opacity="1" fill-rule="nonzero"/><path fill="#f5b884" d="M 721.339844 405.445312 C 678.179688 379.269531 619.253906 362.238281 566.890625 362.597656 C 561.171875 363.515625 554.300781 364.023438 547.363281 363.582031 C 507.625 367.460938 456.15625 391.171875 439.113281 422.167969 C 434.035156 432.441406 437.808594 555.835938 443.851562 593.441406 C 445.617188 598.460938 447.417969 602.84375 449.210938 606.285156 C 454.183594 615.746094 463.601562 627.085938 474.796875 638.429688 C 476.664062 635.65625 478.332031 632.761719 479.476562 629.464844 C 484.074219 618.277344 483.417969 603.804688 482.097656 592.609375 C 478.15625 561.679688 440.648438 528.78125 461.054688 499.167969 C 472.230469 482.046875 492.636719 472.835938 498.5625 453.089844 C 505.789062 430.070312 503.824219 411.628906 527.515625 399.128906 C 523.5625 399.128906 520.269531 401.097656 516.328125 402.425781 C 549.230469 374.125 574.890625 392.546875 574.890625 392.546875 C 592.65625 385.964844 627.527344 385.3125 642.671875 396.5 C 639.375 397.808594 635.433594 395.835938 632.796875 399.128906 C 666.355469 406.375 655.167969 420.847656 656.480469 443.878906 C 659.117188 485.996094 719 495.21875 703.863281 538.65625 C 698.601562 555.761719 686.09375 566.292969 686.09375 584.71875 C 686.09375 603.167969 698.210938 613.539062 703.421875 628.207031 C 708.394531 622.652344 712.59375 617.285156 715.4375 612.394531 C 715.851562 611.671875 716.277344 610.816406 716.691406 610.019531 C 716.285156 568.003906 737.878906 413.8125 721.339844 405.445312 " fill-opacity="1" fill-rule="nonzero"/><path fill="#ffffff" d="M 477.484375 449.164062 C 484.179688 447.6875 513.015625 445.730469 530.046875 450.195312 C 540.410156 452.917969 553.84375 466.511719 553.320312 469.890625 C 553.023438 471.714844 539.746094 470.351562 518.925781 467.621094 C 501.53125 465.355469 462.644531 462.703125 461.109375 462.292969 C 457.742188 461.441406 467.441406 451.398438 477.484375 449.164062 " fill-opacity="1" fill-rule="nonzero"/><path fill="#ffffff" d="M 544.085938 505.757812 C 542.460938 499.242188 531.582031 485.449219 512.210938 482.660156 C 492.84375 479.855469 476.015625 481.472656 472.074219 487.152344 C 472.074219 487.152344 484.164062 502.695312 499.21875 506.15625 C 516.667969 510.164062 544.085938 505.757812 544.085938 505.757812 " fill-opacity="1" fill-rule="nonzero"/><path fill="#ccced4" d="M 543.695312 504.53125 C 541.15625 497.667969 530.453125 485.300781 512.210938 482.660156 C 494.761719 480.128906 478.585938 478.976562 471.824219 487.640625 L 476.636719 492.578125 C 516.734375 488.503906 523.398438 491.714844 543.695312 504.53125 " fill-opacity="1" fill-rule="nonzero"/><path fill="#b1938b" d="M 527.347656 489.265625 C 524.742188 488.015625 516.703125 484.945312 513.886719 484.28125 C 507.175781 482.710938 504.886719 482.746094 498.039062 484.511719 C 493.699219 490.445312 495.285156 499.46875 501.066406 504.554688 C 502.128906 505.460938 503.332031 506.140625 504.585938 506.703125 L 518.492188 506.960938 C 520.371094 506.164062 522.085938 505.042969 523.457031 503.574219 C 526.003906 500.863281 528.1875 495.144531 527.347656 489.265625 " fill-opacity="1" fill-rule="nonzero"/><path fill="#9e6c68" d="M 527.199219 495.308594 C 527.554688 493.390625 527.65625 491.34375 527.347656 489.265625 C 524.742188 488.015625 516.703125 484.945312 513.886719 484.28125 C 507.175781 482.710938 504.886719 482.746094 498.039062 484.511719 C 496.613281 486.453125 495.898438 488.734375 495.683594 491.101562 C 506.503906 489.308594 517.273438 491.035156 527.199219 495.308594 " fill-opacity="1" fill-rule="nonzero"/><path fill="#a57f75" d="M 521.398438 487.011719 C 518.335938 488.886719 516.320312 490.347656 516.246094 495.800781 C 515.5 498.039062 511.242188 498.9375 508.402344 497.226562 C 507.148438 495.972656 506.601562 493.183594 505.066406 492.679688 C 502.488281 492.238281 497.980469 490.621094 497.085938 492.644531 C 496.726562 493.476562 498.296875 500.878906 503.125 504.074219 C 507.640625 507.019531 514.867188 506.828125 518.078125 505.277344 C 524.777344 502.046875 527.449219 494.304688 524.113281 487.898438 C 523.207031 487.566406 522.320312 487.277344 521.398438 487.011719 " fill-opacity="1" fill-rule="nonzero"/><path fill="#875550" d="M 524.113281 487.898438 C 523.207031 487.566406 522.320312 487.277344 521.398438 487.011719 C 519.265625 488.304688 517.640625 489.449219 516.835938 491.847656 C 519.753906 492.554688 522.644531 493.492188 525.457031 494.613281 C 525.613281 492.363281 525.25 490.054688 524.113281 487.898438 " fill-opacity="1" fill-rule="nonzero"/><path fill="#231f20" d="M 520.195312 489.359375 C 519.507812 488.007812 518.492188 486.902344 517.324219 486.039062 C 514.039062 485.398438 510.652344 485.042969 507.199219 484.84375 C 506.992188 484.917969 506.792969 484.976562 506.59375 485.066406 C 501.574219 487.464844 499.539062 493.367188 502.089844 498.132812 C 504.585938 502.929688 510.742188 504.902344 515.714844 502.453125 C 520.800781 500.015625 522.726562 494.179688 520.195312 489.359375 " fill-opacity="1" fill-rule="nonzero"/><path fill="#ffffff" d="M 504.402344 488.023438 C 506.269531 489.078125 506.621094 490.984375 505.25 492.296875 C 503.863281 493.582031 501.183594 493.789062 499.332031 492.703125 C 497.472656 491.632812 497.117188 489.742188 498.527344 488.40625 C 499.929688 487.101562 502.527344 486.953125 504.402344 488.023438 " fill-opacity="1" fill-rule="nonzero"/><path fill="#702e1f" d="M 472.1875 488.320312 C 471.949219 488.488281 467.417969 484.761719 469.34375 483.839844 C 479.476562 479.007812 501.765625 477.042969 516.484375 481.722656 C 537.464844 488.386719 544.675781 505.175781 544.085938 505.757812 C 543.664062 506.15625 534.003906 490.007812 518.210938 486.902344 C 489.34375 481.226562 472.769531 488.511719 472.1875 488.320312 " fill-opacity="1" fill-rule="nonzero"/><path fill="#d7a87d" d="M 544.085938 505.757812 C 544.152344 506.304688 528.792969 508.65625 509.605469 508.3125 C 489.609375 509.359375 471.136719 488.164062 471.824219 488.140625 C 472.222656 487.324219 490.960938 507.808594 510.496094 506.769531 C 529.429688 507.109375 544.027344 505.101562 544.085938 505.757812 " fill-opacity="1" fill-rule="nonzero"/><path fill="#ffffff" d="M 678.039062 450.992188 C 671.523438 448.984375 643.003906 445.199219 625.550781 449.125 C 614.929688 451.507812 600.066406 465.597656 600.234375 469.324219 C 600.324219 471.359375 613.710938 470.609375 634.746094 468.808594 C 652.3125 467.316406 691.347656 466.628906 692.925781 466.277344 C 696.378906 465.523438 687.796875 453.988281 678.039062 450.992188 " fill-opacity="1" fill-rule="nonzero"/><path fill="#ffffff" d="M 606.839844 505.757812 C 608.464844 499.242188 619.335938 485.449219 638.710938 482.660156 C 658.082031 479.855469 674.910156 481.472656 678.859375 487.152344 C 678.859375 487.152344 666.769531 502.695312 651.714844 506.15625 C 634.265625 510.164062 606.839844 505.757812 606.839844 505.757812 " fill-opacity="1" fill-rule="nonzero"/><path fill="#ccced4" d="M 607.226562 504.53125 C 609.765625 497.667969 620.472656 485.300781 638.710938 482.660156 C 656.164062 480.128906 672.335938 478.976562 679.101562 487.640625 L 674.296875 492.578125 C 634.191406 488.503906 627.527344 491.714844 607.226562 504.53125 " fill-opacity="1" fill-rule="nonzero"/><path fill="#b1938b" d="M 623.574219 489.265625 C 626.179688 488.015625 634.222656 484.945312 637.035156 484.28125 C 643.757812 482.710938 646.039062 482.746094 652.886719 484.511719 C 657.226562 490.445312 655.648438 499.46875 649.863281 504.554688 C 648.792969 505.460938 647.589844 506.140625 646.339844 506.703125 L 632.429688 506.960938 C 630.554688 506.164062 628.835938 505.042969 627.46875 503.574219 C 624.921875 500.863281 622.738281 495.144531 623.574219 489.265625 " fill-opacity="1" fill-rule="nonzero"/><path fill="#9e6c68" d="M 623.726562 495.308594 C 623.367188 493.390625 623.277344 491.34375 623.574219 489.265625 C 626.179688 488.015625 634.222656 484.945312 637.035156 484.28125 C 643.757812 482.710938 646.039062 482.746094 652.886719 484.511719 C 654.3125 486.453125 655.027344 488.734375 655.25 491.101562 C 644.421875 489.308594 633.660156 491.035156 623.726562 495.308594 " fill-opacity="1" fill-rule="nonzero"/><path fill="#a57f75" d="M 629.527344 487.011719 C 632.589844 488.886719 634.613281 490.347656 634.679688 495.800781 C 635.425781 498.039062 639.691406 498.9375 642.519531 497.226562 C 643.773438 495.972656 644.320312 493.183594 645.855469 492.679688 C 648.445312 492.238281 652.953125 490.621094 653.839844 492.644531 C 654.195312 493.476562 652.628906 500.878906 647.796875 504.074219 C 643.285156 507.019531 636.054688 506.828125 632.84375 505.277344 C 626.148438 502.046875 623.484375 494.304688 626.8125 487.898438 C 627.707031 487.566406 628.613281 487.277344 629.527344 487.011719 " fill-opacity="1" fill-rule="nonzero"/><path fill="#875550" d="M 626.8125 487.898438 C 627.707031 487.566406 628.613281 487.277344 629.527344 487.011719 C 631.660156 488.304688 633.285156 489.449219 634.097656 491.847656 C 631.167969 492.554688 628.289062 493.492188 625.46875 494.613281 C 625.308594 492.363281 625.675781 490.054688 626.8125 487.898438 " fill-opacity="1" fill-rule="nonzero"/><path fill="#231f20" d="M 630.730469 489.359375 C 631.417969 488.007812 632.429688 486.902344 633.601562 486.039062 C 636.886719 485.398438 640.273438 485.042969 643.722656 484.84375 C 643.933594 484.917969 644.121094 484.976562 644.328125 485.066406 C 649.351562 487.464844 651.390625 493.367188 648.835938 498.132812 C 646.339844 502.929688 640.179688 504.902344 635.210938 502.453125 C 630.125 500.015625 628.199219 494.179688 630.730469 489.359375 " fill-opacity="1" fill-rule="nonzero"/><path fill="#ffffff" d="M 628.746094 489.664062 C 626.886719 490.710938 626.539062 492.628906 627.90625 493.929688 C 629.292969 495.226562 631.980469 495.433594 633.832031 494.347656 C 635.691406 493.277344 636.046875 491.375 634.628906 490.046875 C 633.226562 488.746094 630.628906 488.59375 628.746094 489.664062 " fill-opacity="1" fill-rule="nonzero"/><path fill="#702e1f" d="M 678.742188 488.320312 C 678.984375 488.488281 683.507812 484.761719 681.589844 483.839844 C 671.457031 479.007812 649.160156 477.042969 634.4375 481.722656 C 613.460938 488.386719 606.25 505.175781 606.839844 505.757812 C 607.261719 506.15625 616.921875 490.007812 632.710938 486.902344 C 661.582031 481.226562 678.152344 488.511719 678.742188 488.320312 " fill-opacity="1" fill-rule="nonzero"/><path fill="#d7a87d" d="M 606.839844 505.757812 C 606.773438 506.304688 622.132812 508.65625 641.316406 508.3125 C 661.316406 509.359375 679.789062 488.164062 679.101562 488.140625 C 678.703125 487.324219 659.964844 507.808594 640.429688 506.769531 C 621.492188 507.109375 606.90625 505.101562 606.839844 505.757812 " fill-opacity="1" fill-rule="nonzero"/><g clip-path="url(#id1)"><path fill="#eb8e21" d="M 1063.8125 1140.152344 C 1067.753906 1090.796875 971.027344 1073.027344 894.035156 1071.054688 C 894.035156 1071.054688 911.800781 1045.390625 945.359375 1025.648438 C 945.359375 1025.648438 951.285156 1021.695312 937.46875 994.0625 C 923.644531 966.414062 878.242188 824.265625 874.292969 784.777344 C 870.34375 745.289062 870.34375 733.449219 844.683594 731.472656 C 829.789062 730.328125 756.414062 699.925781 697.429688 674.613281 C 630.546875 708.78125 548.234375 716.484375 480.753906 680.480469 C 424.632812 704.390625 360.96875 730.417969 347.207031 731.472656 C 321.542969 733.449219 321.542969 745.289062 317.601562 784.777344 C 313.648438 824.265625 268.242188 966.414062 254.425781 994.0625 C 240.609375 1021.695312 246.53125 1025.648438 246.53125 1025.648438 C 280.082031 1045.390625 297.859375 1071.054688 297.859375 1071.054688 C 220.867188 1073.027344 124.132812 1090.796875 128.082031 1140.152344 C 132.03125 1189.507812 224.816406 1293.828125 224.816406 1293.828125 C 224.816406 1293.828125 183.359375 1321.472656 205.074219 1333.316406 C 226.792969 1345.160156 260.347656 1345.160156 228.757812 1357.011719 C 197.175781 1368.855469 191.25 1374.78125 212.964844 1374.78125 C 231.113281 1374.78125 960.835938 1374.78125 978.917969 1374.78125 C 1000.636719 1374.78125 994.710938 1368.855469 963.128906 1357.011719 C 931.542969 1345.160156 965.101562 1345.160156 986.820312 1333.316406 C 1008.527344 1321.472656 967.078125 1293.828125 967.078125 1293.828125 C 967.078125 1293.828125 1059.859375 1189.507812 1063.8125 1140.152344 " fill-opacity="1" fill-rule="nonzero"/></g><path fill="#f3b567" d="M 531.789062 1054.273438 C 530.917969 1054.28125 529.863281 1035.589844 531.242188 1012.484375 C 532.933594 989.363281 537.960938 971.128906 538.691406 971.355469 C 539.871094 971.636719 536.460938 989.894531 534.785156 1012.734375 C 533.414062 1035.613281 532.882812 1054.273438 531.789062 1054.273438 " fill-opacity="1" fill-rule="nonzero"/><path fill="#f3b567" d="M 567.320312 1073.027344 C 566.566406 1073.09375 564.875 1049.417969 567.429688 1020.335938 C 570.324219 991.320312 575.394531 968.234375 576.199219 968.390625 C 577.320312 968.589844 573.84375 991.84375 570.957031 1020.660156 C 568.433594 1049.5 568.523438 1072.988281 567.320312 1073.027344 " fill-opacity="1" fill-rule="nonzero"/><path fill="#f3b567" d="M 656.15625 1071.054688 C 655.050781 1070.902344 656.429688 1048.710938 656.105469 1021.214844 C 655.597656 993.710938 654.089844 971.488281 655.167969 971.355469 C 656.039062 971.230469 659.152344 993.496094 659.65625 1021.15625 C 659.988281 1048.835938 656.992188 1071.195312 656.15625 1071.054688 " fill-opacity="1" fill-rule="nonzero"/><path fill="#bf6522" d="M 768.347656 969.710938 C 768.347656 969.710938 571.925781 951.933594 452.488281 975.628906 L 437.683594 988.46875 C 437.683594 988.46875 546.261719 956.871094 772.289062 991.421875 L 768.347656 969.710938 " fill-opacity="1" fill-rule="nonzero"/><path fill="#f3b567" d="M 246.53125 1025.648438 C 245.878906 1024.4375 278.679688 1018.558594 315.425781 1033.339844 C 352.496094 1046.777344 374.1875 1071.558594 373.117188 1072.039062 C 372.535156 1072.695312 350.527344 1049.855469 314.164062 1036.660156 C 278.117188 1022.195312 246.566406 1026.363281 246.53125 1025.648438 " fill-opacity="1" fill-rule="nonzero"/><path fill="#f3b567" d="M 224.816406 1293.828125 C 225.585938 1293.214844 233.007812 1299.980469 241.40625 1308.882812 C 251.246094 1316.03125 258.832031 1322.578125 258.375 1323.449219 C 257.917969 1324.3125 249.246094 1318.992188 239.023438 1311.507812 C 230.375 1302.394531 224.050781 1294.433594 224.816406 1293.828125 " fill-opacity="1" fill-rule="nonzero"/><path fill="#f3b567" d="M 820.992188 1298.105469 C 820.925781 1299.015625 795.59375 1294.527344 754.582031 1298.238281 C 713.789062 1302.070312 657.25 1311.074219 594.414062 1313.199219 C 468.953125 1321.898438 366.875 1318.628906 366.941406 1317.847656 C 366.976562 1316.667969 468.820312 1318.335938 594.207031 1309.65625 C 657.101562 1307.507812 713.164062 1298.964844 754.398438 1295.722656 C 795.691406 1292.644531 821.117188 1298.054688 820.992188 1298.105469 " fill-opacity="1" fill-rule="nonzero"/><path fill="#f3b567" d="M 745.976562 1276.382812 C 745.851562 1277.214844 687.382812 1270.316406 614.828125 1274.734375 C 542.402344 1279.046875 483.402344 1279.679688 483.417969 1278.359375 C 483.457031 1277.71875 542.136719 1275.503906 614.664062 1271.179688 C 687.40625 1266.75 746.25 1275.273438 745.976562 1276.382812 " fill-opacity="1" fill-rule="nonzero"/><path fill="#f3b567" d="M 700.574219 1177.664062 C 700.757812 1177.558594 632.554688 1194.695312 546.367188 1192.910156 C 459.269531 1190.679688 395.871094 1155.871094 396.558594 1155.945312 C 396.890625 1154.1875 460.222656 1187.167969 546.5 1189.359375 C 631.992188 1191.152344 700.394531 1175.640625 700.574219 1177.664062 " fill-opacity="1" fill-rule="nonzero"/><path fill="#f3b567" d="M 311.675781 915.085938 C 312.605469 914.726562 327.285156 948.109375 344.726562 989.710938 C 362.09375 1031.457031 369.855469 1067.542969 369.175781 1067.601562 C 367.902344 1067.859375 358.726562 1032.636719 341.441406 991.046875 C 324.039062 949.542969 310.769531 915.425781 311.675781 915.085938 " fill-opacity="1" fill-rule="nonzero"/><path fill="#f3b567" d="M 945.359375 1025.648438 C 945.328125 1026.410156 914.25 1022.105469 878.816406 1036.519531 C 843.117188 1049.730469 821.625 1072.40625 821 1071.714844 C 819.972656 1071.277344 841.109375 1046.667969 877.539062 1033.199219 C 913.695312 1018.453125 946.023438 1024.484375 945.359375 1025.648438 " fill-opacity="1" fill-rule="nonzero"/><path fill="#f3b567" d="M 967.078125 1293.828125 C 967.839844 1294.433594 961.515625 1302.394531 952.863281 1311.507812 C 942.648438 1318.992188 933.96875 1324.3125 933.519531 1323.449219 C 933.0625 1322.578125 940.640625 1316.03125 950.480469 1308.882812 C 958.886719 1299.980469 966.296875 1293.214844 967.078125 1293.828125 " fill-opacity="1" fill-rule="nonzero"/><path fill="#f3b567" d="M 880.210938 915.085938 C 881.695312 915.632812 867.183594 948.082031 849.382812 987.527344 C 832.113281 1027.464844 829.484375 1063.136719 827.898438 1062.835938 C 827.523438 1063.027344 828.601562 1026.695312 846.105469 986.175781 C 864.078125 946.316406 879.8125 915.019531 880.210938 915.085938 " fill-opacity="1" fill-rule="nonzero"/><path fill="#d0592b" d="M 457.984375 690.117188 C 408.507812 710.90625 359.132812 730.566406 347.207031 731.472656 C 344.484375 731.679688 342.105469 732.027344 339.921875 732.484375 C 365.972656 841.726562 374.550781 956.648438 370.832031 1072.222656 C 391.332031 1074.421875 410.425781 1077.992188 428.699219 1082.125 C 443.476562 1085.460938 457.734375 1089.144531 471.792969 1092.753906 C 472.804688 957.238281 476.6875 826.414062 457.984375 690.117188 " fill-opacity="1" fill-rule="nonzero"/><path fill="#d0592b" d="M 426.832031 1081.261719 C 408.382812 1076.828125 370.785156 1073.925781 370.832031 1072.222656 C 348.875 1069.867188 325.308594 1069.09375 299.335938 1070.953125 C 281.378906 1130.5 301.242188 1194.953125 310.804688 1259.925781 L 436.605469 1259.925781 C 429.484375 1200.636719 419.355469 1140.800781 426.832031 1081.261719 " fill-opacity="1" fill-rule="nonzero"/><path fill="#d0592b" d="M 734.324219 690.117188 C 783.800781 710.90625 833.175781 730.566406 845.101562 731.472656 C 847.820312 731.679688 850.203125 732.027344 852.386719 732.484375 C 826.335938 841.726562 817.75 956.648438 821.464844 1072.222656 C 800.976562 1074.421875 781.882812 1077.992188 763.601562 1082.125 C 748.832031 1085.460938 734.574219 1089.144531 720.507812 1092.753906 C 719.503906 957.238281 715.621094 826.414062 734.324219 690.117188 " fill-opacity="1" fill-rule="nonzero"/><path fill="#d0592b" d="M 765.476562 1081.261719 C 783.925781 1076.828125 821.523438 1073.925781 821.464844 1072.222656 C 843.433594 1069.867188 867 1069.09375 892.972656 1070.953125 C 910.929688 1130.5 891.054688 1194.953125 881.503906 1259.925781 L 755.683594 1259.925781 C 762.820312 1200.636719 772.953125 1140.800781 765.476562 1081.261719 " fill-opacity="1" fill-rule="nonzero"/><path fill="#f3b567" d="M 297.609375 1071.054688 C 296.976562 1069.417969 381.605469 1061.980469 479.667969 1092.921875 C 578.183594 1119.128906 661.21875 1119.269531 661.09375 1120.410156 C 661.351562 1121.246094 577.6875 1122.683594 478.792969 1096.367188 C 380.941406 1065.515625 297.433594 1071.410156 297.609375 1071.054688 " fill-opacity="1" fill-rule="nonzero"/><path fill="#f3b567" d="M 893.046875 1071.375 C 893.164062 1070.902344 814.59375 1066.9375 721.5625 1093.019531 C 627.320312 1115.4375 548.21875 1107.933594 548.566406 1108.566406 C 548.269531 1105.976562 627.234375 1111.835938 720.714844 1089.570312 C 814.007812 1063.382812 893.605469 1068.9375 893.046875 1071.375 " fill-opacity="1" fill-rule="nonzero"/><path fill="#e4e6e9" d="M 575.222656 390.90625 C 575.222656 390.90625 571.273438 379.054688 530.800781 383.992188 C 489.183594 389.070312 506.453125 432.792969 483.417969 458.027344 C 460.382812 483.265625 431.105469 507.707031 450.847656 553.777344 C 470.53125 599.695312 453.011719 612.542969 428.890625 646.554688 C 404.75 680.566406 380.609375 672.878906 381.710938 650.9375 C 382.808594 628.992188 378.425781 618.03125 365.257812 591.695312 C 352.085938 565.363281 346.601562 536.839844 366.351562 512.703125 C 386.09375 488.570312 412.433594 478.695312 415.726562 447.96875 C 419.003906 417.253906 413.546875 390.449219 449.859375 351.417969 C 480.59375 318.394531 530.246094 319.589844 575.222656 357.335938 C 575.222656 357.335938 607.757812 308.816406 676.882812 337.589844 C 740.898438 364.238281 713.015625 439.199219 756.886719 461.140625 C 800.769531 483.078125 831.492188 502.828125 811.730469 554.398438 C 791.992188 605.964844 764.574219 609.25 759.085938 645.460938 C 753.59375 681.667969 697.496094 652.730469 695.308594 611.035156 C 693.109375 569.347656 722.085938 561.910156 717.6875 520.222656 C 713.304688 478.527344 669.789062 479.617188 664.046875 444.210938 C 658.128906 407.6875 663.183594 391.570312 622.597656 384.980469 C 582 378.390625 575.222656 390.90625 575.222656 390.90625 " fill-opacity="1" fill-rule="nonzero"/><path fill="#ffffff" d="M 576.199219 389.917969 C 575.363281 390.347656 572.949219 383.113281 571.378906 373.742188 C 572.515625 364.371094 574.285156 357.027344 575.222656 357.335938 C 576.152344 357.648438 576.066406 364.960938 574.929688 373.675781 C 576.464844 382.214844 577.128906 389.484375 576.199219 389.917969 " fill-opacity="1" fill-rule="nonzero"/><path fill="#ffffff" d="M 411.363281 707.777344 C 416.375 709.054688 376.882812 688.625 397.636719 644.53125 C 403.347656 625.109375 425.601562 601.566406 414.019531 574.726562 C 400.625 549.15625 404.167969 511.90625 426.945312 486.910156 C 452.207031 464.210938 459.375 433.058594 463.234375 404.980469 C 466.53125 376.207031 486.214844 352.804688 508.59375 349.476562 C 554.765625 340.015625 572.160156 374.132812 571.273438 371.160156 C 571.3125 374.472656 553.40625 341.988281 509.160156 351.921875 C 487.78125 355.589844 469.691406 377.378906 466.464844 405.527344 C 463.175781 433.015625 454.878906 466.867188 429.71875 489.132812 C 407.703125 513.726562 404.226562 548.125 417.121094 573.679688 C 428.832031 603.539062 405.703125 626.121094 399.925781 645.59375 C 379.050781 687.222656 416.738281 708.285156 411.363281 707.777344 " fill-opacity="1" fill-rule="nonzero"/><path fill="#ffffff" d="M 507.109375 396.820312 C 508.03125 399.105469 508.550781 370.664062 536.792969 363.484375 C 566.449219 361.484375 575.386719 388.523438 574.226562 386.953125 C 573.496094 388.804688 563.445312 364.886719 537.296875 367.003906 C 512.894531 372.355469 509.480469 399.636719 507.109375 396.820312 " fill-opacity="1" fill-rule="nonzero"/><path fill="#ffffff" d="M 576.199219 387.941406 C 573.148438 390.140625 580.515625 357.507812 612.316406 365.375 C 640.828125 370.214844 649.019531 395.476562 649.242188 393.859375 C 647.609375 396.488281 637.441406 372.671875 611.816406 368.894531 C 582.433594 361.582031 576.09375 389.277344 576.199219 387.941406 " fill-opacity="1" fill-rule="nonzero"/><path fill="#ffffff" d="M 756.832031 712.714844 C 751.667969 713.421875 788.496094 688.359375 770.828125 643.242188 C 764.613281 634.082031 750.027344 629.523438 743.820312 615.730469 C 737.703125 601.945312 742.09375 585.796875 747.953125 571.472656 C 753.75 556.863281 762.671875 542.414062 764.640625 525.976562 C 765.277344 509.574219 754.804688 493.515625 742.09375 481.949219 C 729.089844 469.722656 711.199219 464.570312 699.230469 450.917969 C 687.695312 436.816406 687.023438 418.730469 685.183594 403.585938 C 683.765625 372.695312 665.757812 344.917969 640.96875 342.976562 C 590.207031 336.128906 574.765625 372.296875 575.222656 370.171875 C 573.660156 372.238281 588.929688 334.113281 641.359375 340.496094 C 667.53125 342.082031 687.050781 371.917969 688.4375 403.210938 C 690.328125 418.566406 691.25 435.835938 701.914062 448.699219 C 712.683594 461.175781 730.796875 466.644531 744.417969 479.257812 C 757.726562 491.53125 768.761719 507.882812 768.117188 526.214844 C 765.890625 544.007812 756.707031 558.359375 750.980469 572.707031 C 745.105469 586.808594 741.046875 602.0625 746.5 614.527344 C 751.808594 627.101562 765.71875 631.53125 772.886719 641.808594 C 790.820312 690.472656 752.042969 713.703125 756.832031 712.714844 " fill-opacity="1" fill-rule="nonzero"/><path fill="#ffffff" d="M 381.753906 718.640625 C 383.058594 718.527344 364.625 709.6875 361.191406 681.769531 C 354.703125 652.4375 398.875 625.441406 387.6875 585.523438 C 382.300781 566.839844 372.558594 547.953125 376.949219 529.660156 C 381.171875 511.402344 395.023438 501.167969 401.777344 490.238281 C 416.375 468.285156 415.941406 450.667969 417.289062 451.117188 C 416.890625 450.71875 418.339844 468.644531 403.851562 491.65625 C 397.054688 503.019531 383.65625 513.667969 380.167969 530.289062 C 376.1875 547.304688 385.421875 565.15625 391.113281 584.585938 C 402.042969 628.667969 357.398438 653.890625 363.695312 681.652344 C 366.144531 708.011719 383.621094 717.910156 381.753906 718.640625 " fill-opacity="1" fill-rule="nonzero"/><path fill="#ffffff" d="M 784.472656 709.753906 C 783.328125 709.054688 794.355469 699.03125 801.527344 677.761719 C 810.761719 655.5 799.277344 625.625 783.160156 594.46875 C 771.992188 557.488281 804.785156 531.292969 798.15625 508.589844 C 794.222656 486.554688 782.007812 476.445312 783.484375 475.796875 C 782.738281 475.921875 795.75 485.117188 800.644531 508.246094 C 807.574219 532.847656 775.511719 559.628906 786.5625 593.441406 C 802.066406 622.867188 814.394531 656.082031 803.914062 678.523438 C 795.839844 700.324219 784.058594 709.664062 784.472656 709.753906 " fill-opacity="1" fill-rule="nonzero"/><path fill="#e4e6e9" d="M 784.472656 723.570312 C 782.496094 711.730469 779.535156 701.851562 771.636719 693.960938 C 762.753906 685.070312 737.097656 682.773438 736.109375 668.953125 C 735.128906 653.160156 749.933594 650.199219 745.984375 631.441406 C 743.023438 617.625 730.515625 611.035156 721.636719 602.152344 C 727.554688 598.203125 734.457031 593.265625 737.421875 587.347656 C 699.921875 581.421875 675.898438 567.605469 638.386719 557.726562 C 629.507812 555.421875 622.761719 555.246094 616.515625 556.160156 C 620.023438 558.90625 623.71875 563.253906 622.074219 568.019531 C 619.460938 575.539062 613.691406 576.714844 609.0625 577.671875 L 604.789062 578.824219 C 603.261719 579.496094 600.929688 581.324219 598.464844 583.273438 C 593.230469 587.371094 586.699219 592.519531 580.957031 592.433594 C 575.222656 592.378906 568.816406 587.089844 563.660156 582.851562 C 561.246094 580.839844 558.957031 578.957031 557.453125 578.261719 L 553.214844 576.992188 C 548.609375 575.9375 542.859375 574.625 540.433594 567.03125 C 539.265625 563.40625 541.199219 560.101562 543.738281 557.527344 C 504.777344 550.359375 466.097656 602.925781 424.199219 586.359375 C 423.210938 596.226562 432.09375 605.117188 438.015625 612.023438 C 423.210938 632.761719 400.507812 646.570312 416.300781 675.203125 C 421.238281 684.09375 437.03125 695.933594 433.078125 707.777344 C 429.128906 720.609375 409.386719 725.546875 404.457031 740.351562 C 395.570312 765.035156 416.300781 780.828125 437.03125 788.730469 C 443.941406 792.671875 456.769531 793.660156 460.722656 802.546875 C 467.625 818.339844 446.894531 821.304688 435.054688 817.351562 C 450.847656 834.132812 479.476562 834.132812 499.21875 827.222656 C 500.195312 854.867188 509.082031 852.890625 531.789062 862.765625 C 557.445312 873.621094 546.59375 891.390625 528.824219 905.210938 C 542.640625 907.183594 557.445312 900.277344 570.285156 896.328125 C 569.289062 903.242188 565.347656 910.148438 560.410156 916.0625 C 580.152344 910.148438 601.867188 897.308594 622.597656 890.402344 C 654.179688 879.546875 663.066406 864.734375 664.046875 833.148438 C 685.761719 838.085938 719.320312 845.976562 737.089844 827.222656 C 687.738281 823.277344 725.246094 790.703125 748.9375 777.867188 C 773.609375 766.023438 788.414062 751.214844 784.472656 723.570312 " fill-opacity="1" fill-rule="nonzero"/><path fill="#ffffff" d="M 423.867188 586.527344 C 424.671875 585.539062 431.417969 588.808594 441.070312 588.519531 C 450.648438 587.945312 458.082031 585.664062 458.582031 586.691406 C 459.011719 587.40625 451.484375 591.464844 441.195312 592.0625 C 430.671875 592.460938 423.171875 587.007812 423.867188 586.527344 " fill-opacity="1" fill-rule="nonzero"/><path fill="#ffffff" d="M 424.199219 587.023438 C 425.792969 586.453125 424.167969 597.332031 434.457031 607.597656 C 445.394531 617.191406 466.871094 619.472656 488.894531 616.378906 C 511.433594 613.757812 530.035156 606.136719 543.769531 599.863281 C 558.101562 594.011719 568.027344 598.011719 567.652344 597.878906 C 567.445312 598.917969 558.300781 595.996094 544.699219 602.203125 C 531.753906 608.851562 512.136719 617.316406 489.34375 619.90625 C 466.976562 623.035156 444.355469 620.46875 432.738281 609.433594 C 421.976562 597.582031 424.921875 586.453125 424.199219 587.023438 " fill-opacity="1" fill-rule="nonzero"/><path fill="#ffffff" d="M 437.683594 611.863281 C 444.847656 615.28125 418.058594 627.542969 418.234375 654.488281 C 421.742188 679.867188 436.421875 699.539062 433.078125 700.375 C 434.472656 699.578125 418.847656 682.898438 414.683594 654.429688 C 415.6875 623.796875 443.195312 614.835938 437.683594 611.863281 " fill-opacity="1" fill-rule="nonzero"/><path fill="#ffffff" d="M 722.292969 601.832031 C 718.75 597.042969 763.882812 624.003906 737.238281 661.765625 C 735.429688 681.710938 761.1875 683.621094 769.304688 692.324219 C 779.269531 701.113281 780.914062 709.53125 781.179688 709.265625 C 780.148438 710.070312 777.402344 701.917969 767.792969 694.324219 C 760.738281 686.324219 733.007812 686.167969 733.695312 661.425781 C 759.882812 623.417969 718.34375 600.585938 722.292969 601.832031 " fill-opacity="1" fill-rule="nonzero"/><path fill="#ffffff" d="M 736.847656 587.597656 C 739.269531 587.40625 713.597656 620.46875 667.972656 612.296875 C 626.929688 599.347656 594.425781 597.539062 593.96875 600.511719 C 593.0625 595.515625 628.835938 595.980469 668.535156 608.785156 C 712.328125 616.59375 737.105469 586.675781 736.847656 587.597656 " fill-opacity="1" fill-rule="nonzero"/><path fill="#ffffff" d="M 737.089844 587.347656 C 737.28125 587.980469 728.34375 589.414062 718.136719 586.46875 C 707.871094 583.945312 700.460938 579.015625 701.066406 578.21875 C 701.636719 577.414062 709.113281 580.574219 719.023438 583.023438 C 728.824219 585.871094 737.003906 586.011719 737.089844 587.347656 " fill-opacity="1" fill-rule="nonzero"/><path fill="#ffffff" d="M 528.832031 713.046875 C 528.808594 713.84375 517.945312 702.117188 519.140625 684.015625 C 520.675781 666.613281 527.597656 654.039062 528.171875 654.472656 C 529.296875 655.042969 524.160156 667.625 522.683594 684.214844 C 521.679688 701.195312 529.953125 711.953125 528.832031 713.046875 " fill-opacity="1" fill-rule="nonzero"/><path fill="#ffffff" d="M 582.789062 732.136719 C 582.964844 732.75 568.589844 728.773438 557.71875 714.980469 C 547.296875 700.75 548.019531 685.652344 548.574219 686.058594 C 550.042969 686.117188 550.832031 699.460938 560.550781 712.839844 C 570.796875 725.761719 583.222656 730.726562 582.789062 732.136719 " fill-opacity="1" fill-rule="nonzero"/><path fill="#ffffff" d="M 641.359375 722.917969 C 641.640625 723.355469 627.453125 727.679688 609.875 723.738281 C 592.292969 718.640625 583.609375 705.6875 584.109375 705.804688 C 585.355469 704.691406 594.425781 715.554688 610.789062 720.300781 C 627.292969 724.003906 641.101562 721.488281 641.359375 722.917969 " fill-opacity="1" fill-rule="nonzero"/><path fill="#ffffff" d="M 509.082031 799.085938 C 510.003906 799.34375 507.945312 805.867188 504.261719 812.640625 C 500.96875 819.386719 501.101562 825.695312 499.707031 825.742188 C 499.152344 825.984375 497.332031 818.820312 501.058594 811.105469 C 504.910156 803.984375 508.089844 798.796875 509.082031 799.085938 " fill-opacity="1" fill-rule="nonzero"/><path fill="#ffffff" d="M 658.621094 820.316406 C 659.265625 819.578125 661.757812 821.484375 664.039062 824.648438 C 665.140625 828.582031 665.027344 831.761719 664.046875 831.667969 C 663.066406 831.578125 661.523438 829.203125 660.875 826.265625 C 658.933594 823.734375 657.964844 821.046875 658.621094 820.316406 " fill-opacity="1" fill-rule="nonzero"/><path fill="#ffffff" d="M 591.011719 862.765625 C 591.4375 862.359375 594.332031 872.542969 588.316406 883.390625 C 581.410156 893.671875 571.121094 895.871094 571.273438 895.339844 C 570.699219 893.945312 579.253906 890.550781 585.289062 881.539062 C 590.546875 872.0625 589.535156 862.933594 591.011719 862.765625 " fill-opacity="1" fill-rule="nonzero"/><path fill="#d7a87d" d="M 611.300781 553.203125 C 611.027344 553.886719 622.324219 559.164062 619.550781 567.148438 C 617.445312 573.230469 612.914062 574.160156 608.523438 575.046875 L 603.71875 576.375 C 601.890625 577.179688 599.535156 579.03125 596.832031 581.164062 C 592.589844 584.492188 587.476562 588.492188 583.0625 589.515625 C 582.898438 589.546875 582.722656 589.582031 582.566406 589.613281 C 582.035156 589.703125 581.496094 589.78125 580.988281 589.769531 C 580.027344 589.761719 577.984375 588.609375 575.613281 586.078125 C 571.828125 582.054688 567.554688 574.875 567.910156 567.886719 L 568.691406 559.578125 C 569.71875 550.292969 571.429688 534.746094 571.753906 506.96875 C 572.210938 469.101562 545.65625 454.578125 545.105469 455.066406 C 544.574219 455.546875 569.519531 470.460938 569.082031 506.9375 C 568.757812 534.597656 567.054688 550.050781 566.050781 559.289062 L 565.253906 567.746094 C 564.898438 574.515625 568.359375 581.347656 571.984375 585.929688 C 569.6875 584.335938 567.414062 582.484375 565.363281 580.792969 C 562.699219 578.59375 560.390625 576.691406 558.589844 575.84375 L 553.820312 574.402344 C 549.445312 573.40625 544.941406 572.359375 542.972656 566.226562 C 540.402344 558.183594 551.820312 553.179688 551.554688 552.492188 C 551.304688 551.792969 537.753906 558.675781 540.433594 567.03125 C 542.859375 574.625 548.609375 575.9375 553.214844 576.992188 L 557.453125 578.261719 C 558.957031 578.957031 561.246094 580.839844 563.660156 582.851562 C 568.816406 587.089844 575.222656 592.378906 580.957031 592.433594 C 586.699219 592.519531 593.230469 587.371094 598.464844 583.273438 C 600.929688 581.324219 603.261719 579.496094 604.789062 578.824219 L 609.0625 577.671875 C 613.691406 576.714844 619.460938 575.539062 622.074219 568.019531 C 624.945312 559.703125 611.566406 552.515625 611.300781 553.203125 " fill-opacity="1" fill-rule="nonzero"/><path fill="#f4ca9d" d="M 303.773438 1070.730469 C 303.773438 1070.730469 287.652344 1032.882812 245.214844 1024.003906 C 245.214844 1024.003906 183.691406 1045.058594 172.835938 1048.679688 C 161.972656 1052.296875 152.761719 1056.910156 145.847656 1071.714844 C 138.355469 1087.777344 117.875 1127 114.589844 1134.558594 C 111.304688 1142.128906 110.316406 1152.335938 116.894531 1164.511719 C 123.46875 1176.675781 138.605469 1194.289062 144.53125 1196.261719 C 144.53125 1196.261719 144.863281 1205.800781 147.210938 1206.910156 C 152.246094 1209.300781 158.015625 1204.320312 158.015625 1204.320312 C 158.015625 1204.320312 164.976562 1208.398438 168.917969 1194.570312 C 172.867188 1180.753906 167.242188 1168.785156 165.589844 1159.574219 C 163.941406 1150.359375 164.261719 1132.582031 165.914062 1126.335938 C 167.566406 1120.085938 182.363281 1105.601562 184.667969 1113.179688 C 186.976562 1120.742188 186.984375 1132.589844 184.34375 1143.777344 C 181.707031 1154.964844 183.679688 1165.820312 189.605469 1172.734375 C 195.523438 1179.640625 200.136719 1176.355469 199.804688 1165.167969 C 199.472656 1153.980469 206.710938 1135.554688 210.328125 1124.035156 C 213.953125 1112.515625 207.382812 1093.4375 207.050781 1082.894531 C 207.050781 1082.894531 218.226562 1078.296875 303.773438 1070.730469 " fill-opacity="1" fill-rule="nonzero"/><path fill="#d7a87d" d="M 150.132812 1114.167969 C 152.925781 1114.167969 143.46875 1135.1875 150.511719 1158.910156 C 158.835938 1183.273438 157.699219 1204.378906 157.941406 1204.320312 C 155.78125 1204.671875 155.335938 1183.839844 147.117188 1159.960938 C 139.757812 1134.003906 151.101562 1113.925781 150.132812 1114.167969 " fill-opacity="1" fill-rule="nonzero"/><path fill="#d7a87d" d="M 133.351562 1113.828125 C 135.359375 1113.835938 129.011719 1133.289062 134.179688 1155.472656 C 142.605469 1177 146.480469 1196.527344 144.703125 1196.59375 C 144.386719 1196.273438 139.433594 1178.828125 130.746094 1156.425781 C 125.320312 1132.351562 133.507812 1113.59375 133.351562 1113.828125 " fill-opacity="1" fill-rule="nonzero"/><path fill="#d7a87d" d="M 144.53125 1196.261719 C 143.484375 1196.753906 135.359375 1181.191406 123.933594 1162.859375 C 113.410156 1141.945312 119.320312 1123.394531 118.863281 1123.695312 C 121.113281 1123.238281 117.394531 1142.507812 126.945312 1160.957031 C 138.503906 1179.515625 145.269531 1195.949219 144.53125 1196.261719 " fill-opacity="1" fill-rule="nonzero"/><path fill="#d7a87d" d="M 210.5 1066.125 C 211.582031 1066.628906 209.464844 1070.339844 209.03125 1074.3125 C 208.644531 1078.628906 208.292969 1082.761719 207.207031 1082.730469 C 206.351562 1082.714844 205.058594 1079.046875 205.503906 1073.824219 C 206.367188 1068.238281 209.902344 1065.75 210.5 1066.125 " fill-opacity="1" fill-rule="nonzero"/><g clip-path="url(#id2)"><path fill="#f4ca9d" d="M 887.613281 1070.730469 C 887.613281 1070.730469 903.734375 1032.882812 946.171875 1024.003906 C 946.171875 1024.003906 1007.699219 1045.058594 1018.550781 1048.679688 C 1029.414062 1052.296875 1038.625 1056.910156 1045.539062 1071.714844 C 1053.03125 1087.777344 1073.511719 1127 1076.796875 1134.558594 C 1080.082031 1142.128906 1081.070312 1152.335938 1074.492188 1164.511719 C 1067.917969 1176.675781 1052.78125 1194.289062 1046.855469 1196.261719 C 1046.855469 1196.261719 1046.527344 1205.800781 1044.175781 1206.910156 C 1039.140625 1209.300781 1033.371094 1204.320312 1033.371094 1204.320312 C 1033.371094 1204.320312 1026.417969 1208.398438 1022.46875 1194.570312 C 1018.519531 1180.753906 1024.144531 1168.785156 1025.796875 1159.574219 C 1027.449219 1150.359375 1027.125 1132.582031 1025.472656 1126.335938 C 1023.820312 1120.085938 1009.023438 1105.601562 1006.71875 1113.179688 C 1004.410156 1120.742188 1004.402344 1132.589844 1007.042969 1143.777344 C 1009.679688 1154.964844 1007.707031 1165.820312 1001.789062 1172.734375 C 995.863281 1179.640625 991.25 1176.355469 991.582031 1165.167969 C 991.914062 1153.980469 984.679688 1135.554688 981.050781 1124.035156 C 977.433594 1112.515625 984.003906 1093.4375 984.335938 1082.894531 C 984.335938 1082.894531 973.160156 1078.296875 887.613281 1070.730469 " fill-opacity="1" fill-rule="nonzero"/></g><path fill="#d7a87d" d="M 1041.257812 1114.167969 C 1040.285156 1113.925781 1051.628906 1134.003906 1044.261719 1159.960938 C 1036.054688 1183.839844 1035.605469 1204.671875 1033.445312 1204.320312 C 1033.6875 1204.378906 1032.550781 1183.273438 1040.875 1158.910156 C 1047.917969 1135.1875 1038.460938 1114.167969 1041.257812 1114.167969 " fill-opacity="1" fill-rule="nonzero"/><path fill="#d7a87d" d="M 1058.035156 1113.828125 C 1057.878906 1113.59375 1066.078125 1132.351562 1060.640625 1156.425781 C 1051.953125 1178.828125 1047 1196.273438 1046.691406 1196.59375 C 1044.90625 1196.527344 1048.78125 1177 1057.207031 1155.472656 C 1062.382812 1133.289062 1056.027344 1113.835938 1058.035156 1113.828125 " fill-opacity="1" fill-rule="nonzero"/><path fill="#d7a87d" d="M 1046.855469 1196.261719 C 1046.117188 1195.949219 1052.875 1179.515625 1064.457031 1160.957031 C 1073.992188 1142.507812 1070.273438 1123.238281 1072.515625 1123.695312 C 1072.058594 1123.394531 1077.96875 1141.945312 1067.453125 1162.859375 C 1056.019531 1181.191406 1047.910156 1196.753906 1046.855469 1196.261719 " fill-opacity="1" fill-rule="nonzero"/><path fill="#d7a87d" d="M 980.886719 1066.125 C 981.484375 1065.75 985.019531 1068.238281 985.882812 1073.824219 C 986.328125 1079.046875 985.035156 1082.714844 984.179688 1082.730469 C 983.09375 1082.761719 982.746094 1078.628906 982.363281 1074.3125 C 981.914062 1070.339844 979.808594 1066.628906 980.886719 1066.125 " fill-opacity="1" fill-rule="nonzero"/></svg>