<svg xmlns="http://www.w3.org/2000/svg" xmlns:xlink="http://www.w3.org/1999/xlink" width="1587" zoomAndPan="magnify" viewBox="0 0 1190.25 1683.749949" height="2245" preserveAspectRatio="xMidYMid meet" version="1.0"><defs><clipPath id="id1"><path d="M 0 1353 L 1189 1353 L 1189 1419.191406 L 0 1419.191406 Z M 0 1353 " clip-rule="nonzero"/></clipPath><clipPath id="id2"><path d="M 0 594 L 1189 594 L 1189 1419.191406 L 0 1419.191406 Z M 0 594 " clip-rule="nonzero"/></clipPath><clipPath id="id3"><path d="M 363 1056 L 826 1056 L 826 1419.191406 L 363 1419.191406 Z M 363 1056 " clip-rule="nonzero"/></clipPath></defs><path fill="#ff8044" d="M 825.730469 326.046875 L 594.75 297.171875 L 594.75 470.425781 L 825.730469 441.546875 L 733.339844 383.796875 Z M 825.730469 326.046875 " fill-opacity="1" fill-rule="nonzero"/><g clip-path="url(#id1)"><path fill="#c7521e" d="M 0.800781 1419.191406 L 1188.699219 1419.191406 L 1122.707031 1353.191406 L 66.796875 1353.191406 Z M 0.800781 1419.191406 " fill-opacity="1" fill-rule="nonzero"/></g><path fill="#662113" d="M 578.25 330.171875 C 578.25 264.171875 611.25 264.171875 611.25 330.171875 C 611.25 495.175781 644.246094 627.175781 644.246094 627.175781 L 545.253906 627.175781 C 545.253906 627.175781 578.25 495.175781 578.25 330.171875 Z M 578.25 330.171875 " fill-opacity="1" fill-rule="nonzero"/><path fill="#c7521e" d="M 924.722656 1188.1875 L 924.722656 1122.1875 L 792.734375 1058.230469 L 792.734375 924.183594 L 726.738281 858.183594 L 722.679688 858.183594 C 722.679688 858.183594 746.835938 727.269531 677.242188 678.359375 L 677.242188 627.175781 L 644.246094 594.175781 L 545.253906 594.175781 L 512.257812 627.175781 L 512.257812 678.359375 C 442.667969 727.269531 466.820312 858.183594 466.820312 858.183594 L 462.761719 858.183594 L 396.765625 924.183594 L 396.765625 1058.230469 L 264.777344 1122.1875 L 264.777344 1188.1875 L 132.789062 1254.1875 L 132.789062 1386.191406 L 1056.710938 1387.414062 L 1056.710938 1254.1875 Z M 924.722656 1188.1875 " fill-opacity="1" fill-rule="nonzero"/><path fill="#662113" d="M 655.664062 858.183594 L 533.835938 858.183594 C 533.835938 858.183594 513.542969 693.179688 554.128906 693.179688 L 635.371094 693.179688 C 675.988281 693.179688 655.664062 858.183594 655.664062 858.183594 Z M 655.664062 858.183594 " fill-opacity="1" fill-rule="nonzero"/><path fill="#c7521e" d="M 389.640625 1005.925781 L 389.640625 988.730469 L 380.003906 979.097656 L 377.925781 979.097656 C 375.085938 964.742188 370.371094 935.765625 370.371094 901.972656 C 370.371094 882.703125 360.734375 882.703125 360.734375 901.972656 C 360.734375 935.734375 356.015625 964.742188 353.179688 979.097656 L 351.097656 979.097656 L 341.464844 988.730469 L 341.464844 1005.925781 C 326.121094 1021.566406 331.796875 1056.183594 331.796875 1056.183594 L 399.273438 1056.183594 C 399.273438 1056.183594 404.949219 1021.566406 389.640625 1005.925781 Z M 848.5 1005.925781 L 848.5 988.730469 L 838.863281 979.097656 L 836.785156 979.097656 C 833.945312 964.742188 829.226562 935.765625 829.226562 901.972656 C 829.226562 882.703125 819.59375 882.703125 819.59375 901.972656 C 819.59375 935.734375 814.875 964.742188 812.035156 979.097656 L 809.957031 979.097656 L 800.324219 988.730469 L 800.324219 1005.925781 C 784.980469 1021.566406 790.6875 1056.183594 790.6875 1056.183594 L 858.167969 1056.183594 C 858.132812 1056.183594 863.808594 1021.566406 848.5 1005.925781 Z M 980.488281 1137.929688 L 980.488281 1120.734375 L 970.851562 1111.097656 L 968.773438 1111.097656 C 965.9375 1096.742188 961.21875 1067.769531 961.21875 1033.976562 C 961.21875 1014.703125 951.582031 1014.703125 951.582031 1033.976562 C 951.582031 1067.734375 946.863281 1096.742188 944.027344 1111.097656 L 941.945312 1111.097656 L 932.3125 1120.734375 L 932.3125 1137.929688 C 916.96875 1153.570312 922.675781 1188.1875 922.675781 1188.1875 L 990.15625 1188.1875 C 990.121094 1188.1875 995.796875 1153.570312 980.488281 1137.929688 Z M 1112.476562 1302.929688 L 1112.476562 1285.738281 L 1102.839844 1276.101562 L 1100.761719 1276.101562 C 1097.925781 1261.746094 1093.207031 1232.773438 1093.207031 1198.980469 C 1093.207031 1179.707031 1083.570312 1179.707031 1083.570312 1198.980469 C 1083.570312 1232.738281 1078.851562 1261.746094 1076.015625 1276.101562 L 1073.9375 1276.101562 L 1064.300781 1285.738281 L 1064.300781 1302.929688 C 1048.957031 1318.574219 1054.664062 1353.191406 1054.664062 1353.191406 L 1122.144531 1353.191406 C 1122.113281 1353.191406 1127.785156 1318.574219 1112.476562 1302.929688 Z M 257.652344 1137.929688 L 257.652344 1120.734375 L 248.015625 1111.097656 L 245.9375 1111.097656 C 243.097656 1096.710938 238.378906 1067.734375 238.378906 1033.976562 C 238.378906 1014.703125 228.746094 1014.703125 228.746094 1033.976562 C 228.746094 1067.734375 224.027344 1096.742188 221.1875 1111.097656 L 219.078125 1111.097656 L 209.441406 1120.734375 L 209.441406 1137.929688 C 194.132812 1153.570312 199.808594 1188.1875 199.808594 1188.1875 L 267.285156 1188.1875 C 267.285156 1188.1875 272.960938 1153.570312 257.652344 1137.929688 Z M 125.664062 1302.929688 L 125.664062 1285.738281 L 116.027344 1276.101562 L 113.949219 1276.101562 C 111.109375 1261.714844 106.390625 1232.738281 106.390625 1198.980469 C 106.390625 1179.707031 96.757812 1179.707031 96.757812 1198.980469 C 96.757812 1232.738281 92.039062 1261.746094 89.199219 1276.101562 L 87.089844 1276.101562 L 77.453125 1285.738281 L 77.453125 1302.929688 C 62.140625 1318.574219 67.816406 1353.191406 67.816406 1353.191406 L 135.296875 1353.191406 C 135.296875 1353.191406 140.972656 1318.574219 125.660156 1302.929688 Z M 125.664062 1302.929688 " fill-opacity="1" fill-rule="nonzero"/><g clip-path="url(#id2)"><path fill="#ff8044" d="M 512.257812 627.175781 L 545.253906 594.175781 L 644.246094 594.175781 L 677.242188 627.175781 Z M 396.765625 924.183594 L 462.761719 858.183594 L 726.738281 858.183594 L 792.734375 924.183594 Z M 264.777344 1122.1875 L 330.773438 1056.183594 L 858.726562 1056.183594 L 924.722656 1122.1875 Z M 132.789062 1254.1875 L 198.785156 1188.1875 L 990.714844 1188.1875 L 1056.710938 1254.1875 Z M 0.800781 1419.191406 L 66.796875 1353.191406 L 1122.707031 1353.191406 L 1188.699219 1419.191406 Z M 0.800781 1419.191406 " fill-opacity="1" fill-rule="nonzero"/></g><path fill="#662113" d="M 693.742188 1056.183594 L 495.757812 1056.183594 C 495.757812 1056.183594 495.757812 924.183594 545.253906 924.183594 L 644.246094 924.183594 C 693.742188 924.183594 693.742188 1056.183594 693.742188 1056.183594 Z M 726.738281 1188.1875 L 462.761719 1188.1875 C 462.761719 1188.1875 462.761719 1122.1875 528.753906 1122.1875 L 660.746094 1122.1875 C 726.738281 1122.1875 726.738281 1188.1875 726.738281 1188.1875 Z M 726.738281 1188.1875 " fill-opacity="1" fill-rule="nonzero"/><path fill="#292f33" d="M 792.734375 1353.191406 L 396.765625 1353.191406 C 396.765625 1353.191406 396.765625 1254.1875 495.757812 1254.1875 L 693.742188 1254.1875 C 792.734375 1254.1875 792.734375 1353.191406 792.734375 1353.191406 Z M 792.734375 1353.191406 " fill-opacity="1" fill-rule="nonzero"/><g clip-path="url(#id3)"><path fill="#ffa06c" d="M 693.742188 1122.1875 L 495.757812 1122.1875 C 477.542969 1122.1875 462.761719 1107.402344 462.761719 1089.1875 C 462.761719 1070.96875 477.542969 1056.183594 495.757812 1056.183594 L 693.742188 1056.183594 C 711.957031 1056.183594 726.738281 1070.96875 726.738281 1089.1875 C 726.738281 1107.402344 711.957031 1122.1875 693.742188 1122.1875 Z M 726.738281 1254.1875 L 462.761719 1254.1875 C 444.546875 1254.1875 429.765625 1239.40625 429.765625 1221.1875 C 429.765625 1202.972656 444.546875 1188.1875 462.761719 1188.1875 L 726.738281 1188.1875 C 744.953125 1188.1875 759.734375 1202.972656 759.734375 1221.1875 C 759.734375 1239.40625 744.953125 1254.1875 726.738281 1254.1875 Z M 792.734375 1419.191406 L 396.765625 1419.191406 C 378.550781 1419.191406 363.769531 1404.40625 363.769531 1386.191406 C 363.769531 1367.976562 378.550781 1353.191406 396.765625 1353.191406 L 792.734375 1353.191406 C 810.949219 1353.191406 825.730469 1367.976562 825.730469 1386.191406 C 825.730469 1404.40625 810.949219 1419.191406 792.734375 1419.191406 Z M 792.734375 1419.191406 " fill-opacity="1" fill-rule="nonzero"/></g><path fill="#ff8044" d="M 693.742188 1254.1875 L 726.738281 1254.1875 L 726.738281 1353.191406 L 693.742188 1353.191406 Z M 462.761719 1254.1875 L 495.757812 1254.1875 L 495.757812 1353.191406 L 462.761719 1353.191406 Z M 462.761719 1254.1875 " fill-opacity="1" fill-rule="nonzero"/></svg>